<?xml version="1.0" encoding="utf-8"?>
<!-- Generator: Adobe Illustrator 19.0.0, SVG Export Plug-In . SVG Version: 6.00 Build 0)  -->
<svg version="1.1" id="Isolation_Mode" xmlns="http://www.w3.org/2000/svg" xmlns:xlink="http://www.w3.org/1999/xlink" x="0px"
	 y="0px" viewBox="0 0 327.2 104.5" style="enable-background:new 0 0 327.2 104.5;" xml:space="preserve">
<style type="text/css">
	.st0{fill:#D60057;}
	.st1{fill:#FFFFFF;}
	.st2{fill:none;stroke:#D60057;stroke-miterlimit:10;}
</style>
<g>
	<g>
		<g>
			<g>
				<path class="st0" d="M33.5,72.8l0-1l4.7,0c0.1,0,0.4-0.2,0.7-0.5c0.3-0.4,0.3-1.1,0-2c-0.8-2.6-3.3-11.7-3.5-12.3
					c-0.2-0.6-0.4-1.9,0.6-2.4c0.4-0.2,0.9-0.4,1.5-0.2c0.6,0.3,0.9,1,1.2,2.2c0.9,4.5,3,11.6,3,11.6c0,0,0.3,0.8,0.7,1.5
					c0.2,0.3,0.5,0.5,0.7,0.5c0.2,0,0.5-0.2,0.7-0.6c1.3-2.4,3.6-12.6,3.6-12.7c0-0.1,0.3-1.4,1.1-1.9c0.3-0.2,0.7-0.3,1.1-0.2
					c0.9,0.2,1.1,0.8,0.8,2.2c-0.8,3.7-3,12.2-3,12.3c-0.1,0.4-0.3,1.5,0.1,2.1c0.2,0.3,0.7,0.5,1.3,0.5c2.1,0,3.2,0,3.7,0l9.2-18.1
					l5.1,10.4l-5.4,0c0,0-1,0-1.1,0.5c0,0.4,0.1,0.6,0.2,0.8c0.2,0.2,0.4,0.1,0.4,0.1l6.9,0.1l3.2,6.8l12.1,0.1c0,0,0.3,0,0.5-0.2
					c0.2-0.2,0.2-0.4,0.2-0.8c0-0.6-0.9-0.7-1-0.7c-0.6,0-5.5,0.4-8.2-2.1c-1.2-1.1-1.9-2.5-1.9-4.3c0-2.9-0.2-4.2-0.1-4.2l0,0
					l0.2,0c0-0.1,1.1-5.6,7.1-5.6c3.9,0,6.2,1.7,6.7,5.1l0,0.1c0.1,1,0,1.9,0,2.1c0,0.5-0.3,1.2-1.2,1.3c-0.7,0-1-0.2-1.2-0.4
					c-0.4-0.4-0.4-1-0.4-1.2l-0.1-1.5c0-0.3-0.6-3-3.8-2.6c-3.2,0.4-3.8,2.4-3.9,2.8l0,4.5c0,0.1,0.1,2.2,2.6,2.4
					c2.8,0.2,5.1,0.1,5.2,0.1c0.9,0.1,2.6,0.6,2.9,2.5c0.3,2.1,0.6,2.1,1.3,2.1c1.3,0,1.3-1.1,1.3-1.2l0-0.1l0-0.1l8.4-16.4l5,10.1
					l-5.9,0c-0.2,0-0.8,0.1-0.8,0.6c0,0.6,0.5,0.7,0.7,0.7l6.6,0l3.5,6.5l7.1,0.1l0,0c0,0,0.5,0.1,0.8-0.2c0.3-0.3,0.4-0.9,0.4-1.3
					c0-2.1,0.1-10.3,0.1-12.5l-5.4,0c-0.1,0-0.6,0-0.9-0.3c-0.4-0.3-0.6-0.8-0.6-1.5c0-0.7,0.3-1.1,0.5-1.3c0.6-0.5,1.5-0.5,1.7-0.5
					L123,55l0,0c0.4,0.1,1.2,0.6,1.2,1.9c-0.1,0.7-0.3,1.2-0.7,1.4c-0.5,0.4-1.2,0.3-1.4,0.3l-4.3,0l-0.2,12.1l0,0
					c0,0.3,0.1,1.1,0.5,1.5c0.2,0.2,0.5,0.4,0.8,0.4l7,0.2l0,0c0,0,0.2-0.1,0.3-0.3c0.2-0.2,0.3-0.7,0.3-1.2l0.1-13.6
					c0-0.3-0.1-1.6,0.5-2.3c0.2-0.3,0.6-0.4,0.9-0.4c0.3,0,0.7,0.1,0.9,0.4c0.7,0.7,0.6,2.3,0.6,2.5l-0.1,13.2
					c0,0.2,0.2,1.4,1.4,1.4l7.7,0.1l0-1.5c-1.5-0.4-6.3-2-6.3-8.2c0-3.5,2-6.1,5.6-7.4c1.4-0.5,4-0.6,5.7,0.1
					c2.2,0.9,4.8,3.1,4.8,7.9c0,2.6-0.8,4.7-2.3,6c-1.6,1.5-3.7,1.7-4.6,1.7l0,1.4l9.1,0.1l0.1-18.4l8.6,16.9l0.1-14.3
					c0-0.1,0-0.7,0.4-1.2c0.2-0.2,0.6-0.5,1.3-0.5c0.6,0,1,0.2,1.3,0.5c0.3,0.4,0.3,0.8,0.3,1l-0.1,14.8c0,0,0,0.6,0.3,0.9
					c0.2,0.2,0.4,0.3,0.7,0.3c1.1,0,1.2-1,1.2-1.2l0-4.3c0-0.6,0.5-1.5,1.7-1.5c0.6,0,1,0.3,1.2,0.5c0.4,0.5,0.3,1.1,0.3,1.2l0,1.8
					c0,0.2,0.2,1.1,2,1.1c2.2,0,2.2-0.9,2.3-1.8c0.1-1.7-0.5-2.6-1.8-2.7c-1.7-0.2-5.5-0.6-5.5-4c0-2,0.1-4.1,1.5-5.5
					c0.9-0.9,2.2-1.3,3.9-1.3c4-0.2,5,2.8,5.1,3.9c0.1,1.1,0,2.2,0,2.3c0,0.6-0.5,1.5-1.5,1.5c-1.1,0-1.5-1.2-1.5-1.8l0-0.1l0-0.1
					c0,0,0.2-1.3-0.3-2c-0.3-0.3-0.8-0.5-1.4-0.5h-0.1c-0.9,0-1.5,0.2-2,0.5c-0.3,0.3-0.5,0.8-0.6,1.4c-0.1,1.8,0.5,2,0.9,2.1
					c0.1,0,0.5,0.1,0.8,0.1c1.4,0.1,4.1,0.4,5,2.6c0.8,2,0.4,4.7-0.3,6.1c-0.3,0.6-0.7,1-1.1,1.2l3.5,0l0,1l-6.3,0l-0.1-1
					c0.6-0.1,1.7-0.3,2.1-0.7l0.1-0.1l0.1,0c0.2-0.1,0.5-0.3,0.7-0.8c0.6-1.2,0.9-3.6,0.3-5.3c-0.6-1.7-2.8-1.9-4.2-2
					c-0.5,0-0.8-0.1-1-0.2c-1.1-0.4-1.6-1.4-1.5-3.1c0-0.9,0.3-1.6,0.9-2.1c0.6-0.5,1.5-0.8,2.6-0.7c1-0.1,1.7,0.2,2.2,0.8
					c0.8,0.9,0.6,2.4,0.6,2.7c0,0.2,0.1,0.8,0.5,0.8c0.5,0,0.5-0.4,0.6-0.6c0,0,0.1-1.1,0-2.2c0-0.9-0.9-3.1-4.1-3
					c-1.5,0-2.5,0.3-3.2,1c-1.1,1.1-1.2,3-1.2,4.8c0,2.3,2.2,2.8,4.7,3.1c1.8,0.2,2.8,1.6,2.7,3.8c-0.1,1.3-0.5,2.7-3.3,2.7
					c-2.3,0-3-1.3-3-2l0-2l0,0c0-0.1,0-0.3-0.1-0.5c-0.1-0.1-0.2-0.1-0.4-0.1c-0.7,0-0.7,0.4-0.7,0.5l0,4.3c0,0.7-0.5,2.1-2.2,2.1
					c-0.6,0-1.1-0.2-1.4-0.5c-0.6-0.6-0.6-1.5-0.6-1.6l0.1-14.8l0-0.1l0,0c0,0,0-0.2-0.1-0.3c-0.1-0.1-0.3-0.1-0.5-0.1
					c-0.3,0-0.4,0.1-0.5,0.2c-0.2,0.2-0.1,0.4-0.1,0.4l0,0l-0.1,18.3l-8.6-16.9l-0.1,15.4l-11-0.1l0-3.4l0.5,0.1
					c0,0,2.6,0.2,4.4-1.4c1.3-1.1,1.9-2.9,1.9-5.3c0-4.3-2.3-6.2-4.2-7c-1.4-0.6-3.7-0.6-5-0.1c-2.3,0.8-5,2.6-5,6.5
					c0,6.4,5.6,7.3,5.9,7.3l0.4,0.1l0,3.3l-8.6-0.1c-1.8,0-2.3-1.5-2.4-2.3l0.1-13.3c0-0.6,0-1.5-0.3-1.8c-0.1-0.1-0.1-0.1-0.2-0.1
					c-0.1,0-0.2,0-0.2,0.1c-0.3,0.3-0.3,1.1-0.3,1.5l0,0.1l-0.1,13.5c0,0.9-0.2,1.5-0.7,1.9c-0.4,0.4-0.9,0.4-1,0.4l-7-0.1
					c-0.6,0-1.1-0.2-1.5-0.6c-0.7-0.8-0.6-2-0.6-2.3l0.1-13l5.3,0l0.1,0c0.1,0,0.4,0.1,0.6-0.1c0.2-0.1,0.3-0.4,0.3-0.7
					c0-0.6-0.3-0.8-0.4-0.8l-12.8-0.1l0,0c-0.2,0-0.7,0-0.9,0.2c0,0-0.2,0.2-0.2,0.5c0,0.4,0.1,0.7,0.2,0.8c0.1,0.1,0.2,0.1,0.2,0.1
					l0.1,0l6.4,0l0,0.5c0,0.1-0.1,10.6-0.1,12.9c0,0.9-0.2,1.6-0.7,2.1c-0.6,0.5-1.4,0.4-1.6,0.4l-7.6-0.1l-3.5-6.5l-6,0
					c-0.7,0-1.7-0.5-1.7-1.6c0-0.7,0.3-1.2,0.9-1.4c0.4-0.2,0.8-0.2,0.8-0.2l4.3,0l-3.4-7l-7.4,14.6c-0.1,0.7-0.6,2.1-2.3,2
					c-1.7,0-2-1.2-2.2-2.9c-0.2-1.5-1.9-1.7-2-1.7c0,0-2.4,0-5.2-0.1c-2.7-0.2-3.4-2.3-3.5-3.4l0-4.6l0,0c0-0.1,0.6-3.1,4.7-3.6
					c4.2-0.5,4.9,3.4,4.9,3.4l0,0l0.1,1.6l0,0c0,0.1,0,0.3,0.1,0.5c0.1,0.1,0.2,0.1,0.5,0.1c0.3,0,0.3-0.2,0.3-0.4l0-0.1l0-0.1
					c0,0,0.2-0.8,0-1.8l0-0.1c-0.2-1.2-0.6-4.3-5.7-4.3c-5,0-5.9,4.4-6,4.8c0,0.2-0.1,1.4,0,4.1c0,1.5,0.5,2.7,1.4,3.5
					c2.5,2.3,7.4,2,7.5,2l0,0.1l0,0c0.7,0.1,2,0.4,2,1.6c0,0.6-0.2,1.1-0.5,1.4c-0.5,0.5-1.1,0.5-1.2,0.4l-12.7-0.1L67,66.9
					l-6.3-0.1c0,0-0.6,0-1.1-0.4c-0.4-0.3-0.5-0.9-0.5-1.5c0.1-1.2,1.4-1.5,2.1-1.4l3.8,0l-3.5-7.2L53,73.2l-0.3,0c0,0-0.9,0-4,0
					c-0.9,0-1.6-0.3-2.1-0.9c-0.8-1.1-0.3-2.9-0.3-2.9c0-0.1,2.2-8.5,3-12.2c0.2-0.9,0.1-1,0.1-1.1c0,0-0.1,0-0.2,0
					c-0.1,0-0.2,0-0.3,0c-0.3,0.2-0.6,1-0.6,1.3c-0.1,0.5-2.4,10.5-3.7,13c-0.5,0.9-1.1,1.1-1.5,1.1c-0.6,0-1.2-0.3-1.5-0.9
					c-0.5-0.8-0.8-1.7-0.8-1.8c0-0.1-2.1-7.2-3-11.7c-0.2-0.9-0.5-1.5-0.6-1.6c-0.1,0-0.2,0-0.6,0.2c-0.5,0.2-0.1,1.2-0.1,1.2l0,0
					c0,0.1,2.7,9.6,3.5,12.3c0.3,1.1,0.3,2.1-0.1,2.8c-0.5,0.8-1.2,1-1.3,1l-0.1,0L33.5,72.8z"/>
			</g>
		</g>
		<g>
			<path class="st0" d="M87.8,35.8c-0.2,0.3-0.5,0.5-0.7,0.8c0,0-0.1,0-0.1,0.1c0,0-0.1,0-0.1,0.1c0,0,0,0-0.1,0.1
				c0,0-0.1,0.1-0.1,0.1L84.4,39c-0.2,0.2-0.4,0.4-0.5,0.6c-0.1,0.2-0.2,0.5-0.2,0.7l3.6,0c0.2,0,0.4,0.1,0.5,0.2
				c0.1,0.1,0.2,0.3,0.2,0.4c0,0.2-0.1,0.3-0.2,0.4c-0.1,0.1-0.3,0.2-0.5,0.2l-4.9,0l0-0.6c0-0.6,0.1-1.1,0.2-1.6
				c0.2-0.5,0.5-0.9,0.9-1.3l2.3-2.1c0,0,0,0,0.1-0.1c0,0,0.1-0.1,0.2-0.1c0,0,0,0,0.1-0.1c0,0,0,0,0.1,0c0.2-0.1,0.3-0.3,0.4-0.4
				c0.1-0.1,0.2-0.3,0.2-0.5l0-2.4c0-0.5-0.2-1-0.5-1.3c-0.4-0.4-0.8-0.5-1.3-0.6c-0.5,0-0.9,0.2-1.3,0.5c-0.4,0.4-0.6,0.8-0.6,1.3
				l0,1.1c0,0.2-0.1,0.4-0.2,0.5c-0.1,0.1-0.3,0.2-0.4,0.2c-0.2,0-0.3-0.1-0.4-0.2c-0.1-0.1-0.2-0.3-0.2-0.5l0-1.1
				c0-0.9,0.3-1.6,0.9-2.2c0.6-0.6,1.3-0.9,2.2-0.9c0.9,0,1.6,0.3,2.2,0.9c0.6,0.6,0.9,1.3,0.9,2.2l0,2.4
				C88.1,35.2,88,35.5,87.8,35.8z M87.5,32.2c0-0.7-0.2-1.3-0.8-1.8c-0.5-0.5-1.1-0.8-1.8-0.8c-0.7,0-1.3,0.2-1.8,0.7
				c-0.5,0.5-0.8,1.1-0.8,1.8l0,1.1c0,0,0,0.1,0,0.1c0,0,0,0,0.1,0c0.1,0,0.1,0,0.1,0c0,0,0-0.1,0-0.1l0-1.1c0-0.6,0.2-1.2,0.7-1.7
				c0.5-0.5,1-0.7,1.7-0.7c0.6,0,1.2,0.2,1.7,0.7c0.5,0.5,0.7,1,0.7,1.7l0,2.4c0,0.3-0.1,0.5-0.3,0.7c-0.2,0.2-0.4,0.4-0.6,0.6
				c0,0,0,0,0,0c0,0,0,0,0,0c0,0,0,0-0.1,0c0,0,0,0,0,0c0,0,0,0-0.1,0.1c0,0,0,0-0.1,0.1l-2.3,2.1c-0.4,0.3-0.6,0.7-0.8,1.1
				c-0.1,0.4-0.2,0.9-0.2,1.4c0,0,0,0.1,0,0.1c0,0,0,0,0.1,0.1c0,0,0,0,0,0l4.3,0c0,0,0.1,0,0.1,0c0,0,0-0.1,0-0.1
				c0-0.1,0-0.1,0-0.1c0,0,0,0-0.1,0l-4.2,0c0-0.4,0.1-0.8,0.2-1.2c0.1-0.4,0.3-0.7,0.7-1l2.3-2.1c0,0,0.1-0.1,0.1-0.1
				c0,0,0.1,0,0.1-0.1c0,0,0,0,0,0c0,0,0,0,0,0c0,0,0.1,0,0.1-0.1c0,0,0.1-0.1,0.1-0.1c0.2-0.2,0.4-0.4,0.6-0.6
				c0.2-0.2,0.3-0.5,0.3-0.8L87.5,32.2z"/>
			<path class="st0" d="M94,40.7c-0.6,0.6-1.3,0.9-2.2,0.9c-0.8,0-1.6-0.3-2.2-0.9c-0.6-0.6-0.9-1.3-0.9-2.2l0-6.1
				c0-0.8,0.3-1.6,0.9-2.2c0.6-0.6,1.3-0.9,2.2-0.9c0.9,0,1.6,0.3,2.2,0.9c0.6,0.6,0.9,1.3,0.9,2.2l0,6.1
				C94.9,39.4,94.6,40.1,94,40.7z M94.3,32.3c0-0.7-0.2-1.3-0.8-1.8c-0.5-0.5-1.1-0.8-1.8-0.8c-0.7,0-1.3,0.2-1.8,0.8
				c-0.5,0.5-0.8,1.1-0.8,1.8l0,6.1c0,0.7,0.2,1.3,0.8,1.8c0.5,0.5,1.1,0.8,1.8,0.8c0.7,0,1.3-0.2,1.8-0.8c0.5-0.5,0.8-1.1,0.8-1.8
				L94.3,32.3z M93.3,40c-0.5,0.5-1,0.7-1.7,0.7c-0.6,0-1.2-0.2-1.6-0.7c-0.5-0.5-0.7-1-0.7-1.7l0-6.1c0-0.6,0.2-1.2,0.7-1.7
				c0.5-0.5,1-0.7,1.7-0.7c0.6,0,1.2,0.2,1.7,0.7s0.7,1,0.7,1.7l0,6.1C94,39,93.8,39.6,93.3,40z M93.7,32.4c0-0.5-0.2-0.9-0.5-1.3
				c-0.4-0.4-0.8-0.6-1.3-0.6c-0.5,0-0.9,0.2-1.3,0.5c-0.4,0.4-0.6,0.8-0.6,1.3l0,6.1c0,0.5,0.2,0.9,0.5,1.3
				c0.4,0.4,0.8,0.6,1.3,0.6c0.5,0,1-0.2,1.3-0.5c0.4-0.4,0.5-0.8,0.6-1.3L93.7,32.4z"/>
			<path class="st0" d="M97.7,41.5c-0.1,0.1-0.3,0.2-0.4,0.2c-0.2,0-0.3-0.1-0.4-0.2c-0.1-0.1-0.2-0.3-0.2-0.5l0.1-10.4l-0.7,0
				c-0.2,0-0.4-0.1-0.5-0.2c-0.1-0.1-0.2-0.3-0.2-0.4c0-0.2,0.1-0.3,0.2-0.4c0.1-0.1,0.3-0.2,0.5-0.2l1.9,0L97.9,41
				C97.9,41.2,97.9,41.4,97.7,41.5z M97.4,29.8C97.4,29.8,97.4,29.8,97.4,29.8c-0.1-0.1-0.1-0.1-0.1-0.1l-1.3,0c0,0-0.1,0-0.1,0
				c0,0,0,0,0,0.1c0,0.1,0,0.1,0,0.1c0,0,0.1,0,0.1,0l1.2,0L97,40.9c0,0,0,0.1,0,0.1c0,0,0,0,0.1,0c0.1,0,0.1,0,0.1,0
				c0,0,0-0.1,0-0.1L97.4,29.8z"/>
			<path class="st0" d="M103.9,40.8c-0.6,0.6-1.3,0.9-2.2,0.9c-0.8,0-1.6-0.3-2.2-0.9c-0.6-0.6-0.9-1.3-0.9-2.2l0-2.5
				c0-0.5,0.1-1,0.4-1.5c0.3-0.5,0.6-0.8,1-1.1c-0.2-0.2-0.4-0.5-0.5-0.8c-0.1-0.3-0.2-0.6-0.2-0.9c0-0.7,0.2-1.2,0.7-1.7
				c0.5-0.5,1.1-0.7,1.7-0.7c0.7,0,1.2,0.2,1.7,0.7c0.5,0.5,0.7,1.1,0.7,1.7c0,0.3-0.1,0.6-0.2,0.9c-0.1,0.3-0.3,0.5-0.5,0.8
				c0.4,0.3,0.7,0.6,1,1.1c0.2,0.5,0.4,1,0.4,1.5l0,2.5C104.8,39.5,104.5,40.2,103.9,40.8z M104.2,35.9c0-0.6-0.2-1.1-0.5-1.6
				c-0.4-0.5-0.8-0.8-1.4-0.9c0.4-0.1,0.6-0.4,0.9-0.7c0.2-0.3,0.4-0.7,0.4-1.1c0-0.5-0.2-1-0.6-1.4c-0.4-0.4-0.8-0.6-1.4-0.6
				c-0.5,0-1,0.2-1.3,0.6c-0.4,0.4-0.6,0.8-0.6,1.3c0,0.4,0.1,0.8,0.3,1.1c0.2,0.3,0.5,0.6,0.9,0.7c-0.5,0.1-1,0.5-1.4,0.9
				c-0.4,0.5-0.6,1-0.6,1.6l0,2.5c0,0.7,0.2,1.3,0.8,1.8c0.5,0.5,1.1,0.8,1.8,0.8c0.7,0,1.3-0.2,1.8-0.8c0.5-0.5,0.8-1.1,0.8-1.8
				L104.2,35.9z M103.2,40.1c-0.5,0.5-1,0.7-1.7,0.7c-0.6,0-1.2-0.2-1.6-0.7c-0.5-0.5-0.7-1-0.7-1.7l0-2.5c0-0.6,0.2-1.2,0.7-1.7
				c0.5-0.5,1-0.7,1.7-0.7c0.6,0,1.2,0.2,1.7,0.7c0.5,0.5,0.7,1,0.7,1.7l0,2.5C103.9,39.1,103.7,39.6,103.2,40.1z M102.8,32.8
				c-0.3,0.3-0.7,0.5-1.2,0.5c-0.4,0-0.8-0.2-1.2-0.5c-0.3-0.3-0.5-0.7-0.5-1.2c0-0.5,0.2-0.9,0.5-1.2s0.7-0.5,1.2-0.5
				c0.5,0,0.9,0.2,1.2,0.5c0.3,0.3,0.5,0.7,0.5,1.2C103.3,32.1,103.1,32.5,102.8,32.8z M103.6,36.1c0-0.5-0.2-0.9-0.5-1.3
				c-0.4-0.4-0.8-0.6-1.3-0.6c-0.5,0-0.9,0.2-1.3,0.5c-0.4,0.4-0.6,0.8-0.6,1.3l0,2.5c0,0.5,0.2,0.9,0.5,1.3
				c0.4,0.4,0.8,0.6,1.3,0.6c0.5,0,1-0.2,1.3-0.5c0.4-0.4,0.5-0.8,0.6-1.3L103.6,36.1z M102.6,31c-0.2-0.2-0.5-0.4-0.8-0.4
				c-0.3,0-0.6,0.1-0.8,0.3c-0.2,0.2-0.3,0.5-0.4,0.8s0.1,0.6,0.3,0.8c0.2,0.2,0.5,0.3,0.8,0.4c0.3,0,0.6-0.1,0.8-0.3
				c0.2-0.2,0.3-0.5,0.4-0.8C102.9,31.5,102.8,31.2,102.6,31z"/>
			<path class="st0" d="M115.2,38c-0.1,0.1-0.3,0.2-0.5,0.2l-3.8,0l0,1.6c0,0.2,0.1,0.4,0.2,0.5c0.1,0.1,0.3,0.2,0.5,0.2l2.3,0
				c0.2,0,0.4,0.1,0.5,0.2c0.1,0.1,0.2,0.3,0.2,0.4c0,0.2-0.1,0.3-0.2,0.4c-0.1,0.1-0.3,0.2-0.5,0.2l-2.3,0c-0.5,0-1-0.2-1.4-0.6
				c-0.4-0.4-0.6-0.8-0.6-1.4l0-1.6l-0.3,0c-0.2,0-0.4-0.1-0.5-0.2c-0.1-0.1-0.2-0.3-0.2-0.4c0-0.2,0.1-0.3,0.2-0.4
				c0.1-0.1,0.3-0.2,0.5-0.2l0.3,0l0-5.5c0-0.5,0.2-1,0.6-1.4c0.4-0.4,0.8-0.6,1.4-0.6l2.3,0c0.2,0,0.4,0.1,0.5,0.2
				c0.1,0.1,0.2,0.3,0.2,0.4c0,0.2-0.1,0.3-0.2,0.4c-0.1,0.1-0.3,0.2-0.5,0.2l-2.3,0c-0.2,0-0.4,0.1-0.5,0.2
				c-0.1,0.1-0.2,0.3-0.2,0.5l0,5.5l3.8,0c0.2,0,0.4,0.1,0.5,0.2c0.1,0.1,0.2,0.3,0.2,0.4C115.4,37.7,115.3,37.9,115.2,38z
				 M114.6,37.3C114.6,37.3,114.6,37.3,114.6,37.3C114.6,37.3,114.6,37.3,114.6,37.3l-4.4-0.1l0-6c0-0.3,0.1-0.6,0.4-0.9
				c0.2-0.2,0.5-0.3,0.9-0.3l2.3,0c0,0,0,0,0,0c0,0,0,0,0.1,0c0,0,0,0,0-0.1c0-0.1,0-0.1,0-0.1s0,0-0.1,0c0,0,0,0,0,0l-2.3,0
				c-0.4,0-0.7,0.1-1,0.4c-0.3,0.3-0.4,0.6-0.4,1l0,6l-0.8,0c0,0-0.1,0-0.1,0c0,0,0,0,0,0.1c0,0.1,0,0.1,0,0.1c0,0,0,0,0.1,0l0.8,0
				l0,2.1c0,0.4,0.1,0.7,0.4,1c0.3,0.3,0.6,0.4,1,0.4l2.3,0c0,0,0,0,0,0c0,0,0,0,0.1,0c0,0,0-0.1,0-0.1c0,0,0-0.1,0-0.1
				c0,0,0,0-0.1,0c0,0,0,0,0,0l-2.3,0c-0.3,0-0.6-0.1-0.9-0.4c-0.2-0.2-0.4-0.5-0.4-0.9l0-2.1l4.3,0c0,0,0,0,0,0c0,0,0,0,0.1,0
				C114.7,37.5,114.7,37.4,114.6,37.3C114.7,37.3,114.7,37.3,114.6,37.3z"/>
			<path class="st0" d="M123.4,41.7c-0.1,0.1-0.3,0.2-0.4,0.2s-0.3-0.1-0.4-0.2c-0.1-0.1-0.2-0.3-0.2-0.5l0.1-10.4
				c-0.5,0-1,0.2-1.3,0.5c-0.4,0.4-0.5,0.8-0.6,1.3l0,5c0,0.2-0.1,0.4-0.2,0.5c-0.1,0.1-0.3,0.2-0.4,0.2c0,0,0,0,0,0c0,0,0,0,0,0
				c-0.2,0-0.3-0.1-0.4-0.2c-0.1-0.1-0.2-0.3-0.2-0.5l0-5c0-0.5-0.2-1-0.5-1.3c-0.4-0.4-0.8-0.5-1.3-0.5l-0.1,10.4
				c0,0.2-0.1,0.4-0.2,0.5c-0.1,0.1-0.3,0.2-0.4,0.2c-0.2,0-0.3-0.1-0.4-0.2c-0.1-0.1-0.2-0.3-0.2-0.5l0.1-11.7l1.3,0
				c0.5,0,1,0.1,1.4,0.3c0.4,0.2,0.8,0.5,1.1,0.9c0.3-0.4,0.6-0.7,1.1-0.9c0.4-0.2,0.9-0.3,1.4-0.3l1.3,0l-0.1,11.7
				C123.6,41.4,123.5,41.6,123.4,41.7z M123,30C123,29.9,123,29.9,123,30C122.9,29.9,122.9,29.9,123,30c-0.1-0.1-0.1-0.1-0.1-0.1
				c0,0,0,0,0,0l-0.7,0c-0.6,0-1.1,0.2-1.5,0.5c-0.5,0.3-0.8,0.8-0.9,1.3c-0.2-0.5-0.5-1-0.9-1.3c-0.4-0.3-1-0.5-1.5-0.5l-0.7,0
				c0,0-0.1,0-0.1,0c0,0,0,0.1,0,0.1l-0.1,11c0,0,0,0.1,0,0.1c0,0,0,0,0.1,0c0.1,0,0.1,0,0.1,0c0,0,0-0.1,0-0.1l0.1-10.9l0.5,0
				c0.6,0,1.2,0.2,1.7,0.7c0.5,0.5,0.7,1,0.7,1.7l0,5c0,0,0,0.1,0,0.1s0,0,0.1,0c0.1,0,0.1,0,0.1,0c0,0,0-0.1,0-0.1l0-5
				c0-0.6,0.2-1.2,0.7-1.6c0.5-0.4,1-0.7,1.7-0.7l0.5,0L122.6,41c0,0,0,0.1,0,0.1c0,0,0,0,0.1,0c0.1,0,0.1,0,0.1,0c0,0,0-0.1,0-0.1
				L123,30z"/>
			<path class="st0" d="M130.8,38.1c-0.1,0.1-0.3,0.2-0.5,0.2l-3.8,0l0,1.6c0,0.2,0.1,0.4,0.2,0.5c0.1,0.1,0.3,0.2,0.5,0.2l2.4,0
				c0.2,0,0.4,0.1,0.5,0.2c0.1,0.1,0.2,0.3,0.2,0.4c0,0.2-0.1,0.3-0.2,0.4c-0.1,0.1-0.3,0.2-0.5,0.2l-2.4,0c-0.5,0-1-0.2-1.4-0.6
				c-0.4-0.4-0.6-0.8-0.6-1.4l0-1.6l-0.3,0c-0.2,0-0.4-0.1-0.5-0.2c-0.1-0.1-0.2-0.3-0.2-0.4c0-0.2,0.1-0.3,0.2-0.4
				c0.1-0.1,0.3-0.2,0.5-0.2l0.3,0l0-5.5c0-0.5,0.2-1,0.6-1.4c0.4-0.4,0.8-0.6,1.4-0.6l2.4,0c0.2,0,0.4,0.1,0.5,0.2
				c0.1,0.1,0.2,0.3,0.2,0.4c0,0.2-0.1,0.3-0.2,0.4c-0.1,0.1-0.3,0.2-0.5,0.2l-2.4,0c-0.2,0-0.4,0.1-0.5,0.2
				c-0.1,0.1-0.2,0.3-0.2,0.5l0,5.5l3.8,0c0.2,0,0.4,0.1,0.5,0.2c0.1,0.1,0.2,0.3,0.2,0.4C131,37.8,130.9,38,130.8,38.1z
				 M130.2,37.4C130.2,37.4,130.2,37.4,130.2,37.4C130.2,37.4,130.1,37.4,130.2,37.4l-4.4-0.1l0-6c0-0.3,0.1-0.6,0.4-0.9
				c0.2-0.2,0.5-0.3,0.9-0.3l2.3,0c0,0,0,0,0,0c0,0,0,0,0.1,0c0,0,0,0,0-0.1c0-0.1,0-0.1,0-0.1c0,0,0,0-0.1,0c0,0,0,0,0,0l-2.3,0
				c-0.4,0-0.7,0.1-1,0.4c-0.3,0.3-0.4,0.6-0.4,1l0,6l-0.8,0c0,0-0.1,0-0.1,0c0,0,0,0,0,0.1c0,0.1,0,0.1,0,0.1c0,0,0,0,0.1,0l0.8,0
				l0,2.1c0,0.4,0.1,0.7,0.4,1c0.3,0.3,0.6,0.4,1,0.4l2.3,0c0,0,0,0,0,0c0,0,0,0,0.1,0c0,0,0-0.1,0-0.1c0,0,0-0.1,0-0.1
				c0,0,0,0-0.1,0c0,0,0,0,0,0l-2.3,0c-0.3,0-0.6-0.1-0.9-0.4c-0.2-0.2-0.4-0.5-0.4-0.9l0-2.1l4.3,0c0,0,0,0,0,0c0,0,0,0,0.1,0
				C130.2,37.6,130.2,37.5,130.2,37.4C130.2,37.4,130.2,37.4,130.2,37.4z"/>
			<path class="st0" d="M138.6,41.8c-0.1,0.1-0.3,0.2-0.4,0.2c0,0,0,0,0,0c0,0,0,0,0,0c-0.2,0-0.3-0.1-0.4-0.2
				c-0.1-0.1-0.2-0.3-0.2-0.5l0-3l-3.7,0l0,3c0,0.2-0.1,0.4-0.2,0.5c-0.1,0.1-0.3,0.2-0.4,0.2c-0.2,0-0.3-0.1-0.4-0.2
				c-0.1-0.1-0.2-0.3-0.2-0.5l0-3l-0.3,0c-0.2,0-0.4-0.1-0.5-0.2c-0.1-0.1-0.2-0.3-0.2-0.4c0,0,0,0,0,0c0,0,0,0,0,0
				c0-0.2,0.1-0.3,0.2-0.4c0.1-0.1,0.3-0.2,0.5-0.2l0.3,0l0-4.4c0-0.8,0.3-1.6,0.9-2.2c0.6-0.6,1.3-0.9,2.2-0.9
				c0.8,0,1.6,0.3,2.2,0.9c0.6,0.6,0.9,1.3,0.9,2.2l-0.1,8.6C138.8,41.5,138.7,41.7,138.6,41.8z M138.1,32.6c0-0.7-0.2-1.3-0.7-1.8
				c-0.5-0.5-1.1-0.8-1.8-0.8c-0.7,0-1.3,0.2-1.8,0.7c-0.5,0.5-0.8,1.1-0.8,1.8l0,4.9l-0.8,0c0,0,0,0,0,0c0,0,0,0-0.1,0
				c0,0,0,0,0,0.1c0,0,0,0.1,0,0.1c0,0,0,0,0.1,0c0,0,0,0,0,0l0.8,0l0,3.5c0,0,0,0,0,0c0,0,0,0,0,0.1s0,0,0.1,0c0,0,0.1,0,0.1,0
				c0,0,0,0,0-0.1c0,0,0,0,0,0l0-3.5l4.7,0l0,3.5c0,0,0,0,0,0c0,0,0,0,0,0.1c0,0,0,0,0.1,0c0,0,0.1,0,0.1,0c0,0,0,0,0-0.1
				c0,0,0,0,0,0L138.1,32.6z M133.2,37.5l0-4.9c0-0.6,0.2-1.2,0.7-1.7c0.5-0.5,1-0.7,1.7-0.7c0.6,0,1.2,0.2,1.7,0.7
				c0.5,0.5,0.7,1,0.7,1.7l0,4.9L133.2,37.5z M137.6,32.7c0-0.5-0.2-0.9-0.5-1.3c-0.4-0.4-0.8-0.5-1.3-0.6c-0.5,0-0.9,0.2-1.3,0.5
				s-0.5,0.8-0.6,1.3l0,4.4l3.7,0L137.6,32.7z"/>
		</g>
		<g>
			<g>
				<path class="st1" d="M89.5,45.9C89.5,46,89.4,46,89.3,46l-0.8,0l0,5.1c0,0.1,0,0.2-0.1,0.2c-0.1,0.1-0.1,0.1-0.2,0.1
					c0,0,0,0,0,0s0,0,0,0c-0.1,0-0.1,0-0.2-0.1c-0.1-0.1-0.1-0.1-0.1-0.2l0-5.1L87,46c-0.1,0-0.2,0-0.2-0.1
					c-0.1-0.1-0.1-0.1-0.1-0.2c0-0.1,0-0.1,0.1-0.2c0.1-0.1,0.1-0.1,0.2-0.1l2.3,0c0.1,0,0.2,0,0.2,0.1c0.1,0.1,0.1,0.1,0.1,0.2
					C89.6,45.8,89.6,45.9,89.5,45.9z M89.2,45.6C89.2,45.6,89.2,45.6,89.2,45.6l-2.3,0c0,0,0,0,0,0c0,0,0,0,0,0.1c0,0,0,0,0,0
					c0,0,0,0,0,0l1.1,0l0,5.4c0,0,0,0,0,0c0,0,0,0,0.1,0c0,0,0,0,0,0c0,0,0,0,0,0l0-5.4l1.1,0c0,0,0,0,0,0
					C89.3,45.7,89.3,45.7,89.2,45.6C89.3,45.6,89.3,45.6,89.2,45.6z"/>
				<path class="st1" d="M93.1,49.6c-0.1,0.1-0.1,0.1-0.2,0.1l-1.9,0l0,0.8c0,0.1,0,0.2,0.1,0.2c0.1,0.1,0.1,0.1,0.2,0.1l1.2,0
					c0.1,0,0.2,0,0.2,0.1c0.1,0.1,0.1,0.1,0.1,0.2c0,0.1,0,0.1-0.1,0.2c-0.1,0.1-0.1,0.1-0.2,0.1l-1.2,0c-0.3,0-0.5-0.1-0.7-0.3
					c-0.2-0.2-0.3-0.4-0.3-0.7l0-0.8l-0.1,0c-0.1,0-0.2,0-0.2-0.1c-0.1-0.1-0.1-0.1-0.1-0.2c0-0.1,0-0.1,0.1-0.2
					c0.1-0.1,0.1-0.1,0.2-0.1l0.1,0l0-2.7c0-0.3,0.1-0.5,0.3-0.7c0.2-0.2,0.4-0.3,0.7-0.3l1.2,0c0.1,0,0.2,0,0.2,0.1
					c0.1,0.1,0.1,0.1,0.1,0.2c0,0.1,0,0.1-0.1,0.2C92.7,46,92.6,46,92.5,46l-1.2,0c-0.1,0-0.2,0-0.2,0.1C91,46.2,91,46.3,91,46.4
					l0,2.7l1.9,0c0.1,0,0.2,0,0.2,0.1c0.1,0.1,0.1,0.1,0.1,0.2C93.2,49.5,93.1,49.6,93.1,49.6z M92.8,49.3
					C92.8,49.3,92.8,49.3,92.8,49.3C92.8,49.3,92.8,49.3,92.8,49.3l-2.2,0l0-3c0-0.2,0.1-0.3,0.2-0.4c0.1-0.1,0.3-0.2,0.4-0.2l1.2,0
					c0,0,0,0,0,0c0,0,0,0,0,0c0,0,0,0,0,0c0,0,0,0,0-0.1c0,0,0,0,0,0c0,0,0,0,0,0l-1.2,0c-0.2,0-0.4,0.1-0.5,0.2
					c-0.1,0.1-0.2,0.3-0.2,0.5l0,3l-0.4,0c0,0,0,0,0,0c0,0,0,0,0,0c0,0,0,0.1,0,0.1c0,0,0,0,0,0l0.4,0l0,1c0,0.2,0.1,0.4,0.2,0.5
					c0.1,0.1,0.3,0.2,0.5,0.2l1.2,0c0,0,0,0,0,0c0,0,0,0,0,0c0,0,0,0,0-0.1c0,0,0,0,0,0c0,0,0,0,0,0c0,0,0,0,0,0l-1.2,0
					c-0.2,0-0.3-0.1-0.4-0.2c-0.1-0.1-0.2-0.3-0.2-0.4l0-1l2.1,0c0,0,0,0,0,0C92.8,49.4,92.8,49.4,92.8,49.3
					C92.8,49.4,92.8,49.4,92.8,49.3C92.8,49.3,92.8,49.3,92.8,49.3z"/>
				<path class="st1" d="M96.1,51.2c0,0.1,0,0.2-0.1,0.2c-0.1,0.1-0.1,0.1-0.2,0.1c-0.1,0-0.1,0-0.2-0.1c-0.1-0.1-0.1-0.1-0.1-0.2
					l0-3.5c0-0.4-0.1-0.8-0.4-1.1c-0.3-0.3-0.6-0.5-1-0.6l0,5.1c0,0.1,0,0.2-0.1,0.2c-0.1,0.1-0.1,0.1-0.2,0.1c0,0,0,0,0,0
					c0,0,0,0,0,0c-0.1,0-0.1,0-0.2-0.1c-0.1-0.1-0.1-0.1-0.1-0.2l0-5.4l0-0.3l0.3,0c0.3,0,0.6,0.1,0.9,0.2c0.3,0.1,0.5,0.3,0.7,0.6
					l0-0.4c0-0.1,0-0.2,0.1-0.2c0.1-0.1,0.1-0.1,0.2-0.1c0,0,0,0,0,0c0,0,0,0,0,0c0.1,0,0.1,0,0.2,0.1c0.1,0.1,0.1,0.1,0.1,0.2
					L96.1,51.2z M95.8,45.7C95.8,45.7,95.8,45.7,95.8,45.7C95.8,45.6,95.8,45.6,95.8,45.7c-0.1-0.1-0.1-0.1-0.1,0c0,0,0,0,0,0l0,1.3
					c-0.1-0.4-0.4-0.7-0.7-1c-0.4-0.3-0.7-0.4-1.2-0.4c0,0,0,0,0,0c0,0,0,0,0,0c0,0,0,0,0,0l0,5.4c0,0,0,0,0,0c0,0,0,0,0,0s0,0,0,0
					c0,0,0,0,0,0l0-5.4c0.5,0,1,0.2,1.3,0.6c0.4,0.4,0.5,0.8,0.5,1.3l0,3.4c0,0,0,0,0,0s0,0,0.1,0c0,0,0,0,0,0c0,0,0,0,0,0
					L95.8,45.7z"/>
				<path class="st1" d="M99.7,49.7c-0.1,0.1-0.1,0.1-0.2,0.1l-1.9,0l0,0.8c0,0.1,0,0.2,0.1,0.2c0.1,0.1,0.1,0.1,0.2,0.1l1.2,0
					c0.1,0,0.2,0,0.2,0.1c0.1,0.1,0.1,0.1,0.1,0.2c0,0.1,0,0.1-0.1,0.2c-0.1,0.1-0.1,0.1-0.2,0.1l-1.2,0c-0.3,0-0.5-0.1-0.7-0.3
					c-0.2-0.2-0.3-0.4-0.3-0.7l0-0.8l-0.1,0c-0.1,0-0.2,0-0.2-0.1c-0.1-0.1-0.1-0.1-0.1-0.2c0-0.1,0-0.1,0.1-0.2
					c0.1-0.1,0.1-0.1,0.2-0.1l0.1,0l0-2.7c0-0.3,0.1-0.5,0.3-0.7c0.2-0.2,0.4-0.3,0.7-0.3l1.2,0c0.1,0,0.2,0,0.2,0.1
					c0.1,0.1,0.1,0.1,0.1,0.2c0,0.1,0,0.1-0.1,0.2c-0.1,0.1-0.1,0.1-0.2,0.1l-1.2,0c-0.1,0-0.2,0-0.2,0.1c-0.1,0.1-0.1,0.2-0.1,0.2
					l0,2.7l1.9,0c0.1,0,0.2,0,0.2,0.1c0.1,0.1,0.1,0.1,0.1,0.2C99.8,49.5,99.7,49.6,99.7,49.7z M99.4,49.3
					C99.4,49.3,99.4,49.3,99.4,49.3C99.4,49.3,99.3,49.3,99.4,49.3l-2.2,0l0-3c0-0.2,0.1-0.3,0.2-0.4c0.1-0.1,0.3-0.2,0.4-0.2l1.2,0
					c0,0,0,0,0,0c0,0,0,0,0,0c0,0,0,0,0,0c0,0,0,0,0-0.1c0,0,0,0,0,0c0,0,0,0,0,0l-1.2,0c-0.2,0-0.4,0.1-0.5,0.2s-0.2,0.3-0.2,0.5
					l0,3l-0.4,0c0,0,0,0,0,0c0,0,0,0,0,0c0,0,0,0.1,0,0.1c0,0,0,0,0,0l0.4,0l0,1c0,0.2,0.1,0.4,0.2,0.5c0.1,0.1,0.3,0.2,0.5,0.2
					l1.2,0c0,0,0,0,0,0c0,0,0,0,0,0c0,0,0,0,0-0.1c0,0,0,0,0,0c0,0,0,0,0,0c0,0,0,0,0,0l-1.2,0c-0.2,0-0.3-0.1-0.4-0.2
					c-0.1-0.1-0.2-0.3-0.2-0.4l0-1l2.1,0c0,0,0,0,0,0C99.4,49.4,99.4,49.4,99.4,49.3C99.4,49.4,99.4,49.4,99.4,49.3
					C99.4,49.4,99.4,49.3,99.4,49.3z"/>
				<path class="st1" d="M103.3,51.5c-0.1,0.1-0.1,0.1-0.2,0.1c0,0,0,0,0,0c0,0,0,0,0,0c-0.1,0-0.1,0-0.2-0.1
					c-0.1-0.1-0.1-0.1-0.1-0.2l0-0.6c0-0.2-0.1-0.5-0.3-0.6c-0.2-0.2-0.4-0.3-0.6-0.3l-0.7,0l0,1.5c0,0.1,0,0.2-0.1,0.2
					c-0.1,0.1-0.1,0.1-0.2,0.1c0,0,0,0,0,0c0,0,0,0,0,0c-0.1,0-0.1,0-0.2-0.1c-0.1-0.1-0.1-0.1-0.1-0.2l0-1.5l-0.1,0
					c-0.1,0-0.2,0-0.2-0.1c-0.1-0.1-0.1-0.1-0.1-0.2c0,0,0,0,0,0c0,0,0,0,0,0c0-0.1,0-0.1,0.1-0.2c0.1-0.1,0.1-0.1,0.2-0.1l0.1,0
					l0-3.7l1.4,0c0.4,0,0.8,0.2,1,0.4c0.3,0.3,0.4,0.6,0.4,1.1l0,1.3c0,0.2-0.1,0.5-0.2,0.7c-0.1,0.2-0.3,0.4-0.4,0.5
					c0.2,0.1,0.3,0.3,0.4,0.5c0.1,0.2,0.2,0.4,0.2,0.7l0,0.6C103.4,51.4,103.3,51.4,103.3,51.5z M103,50.6c0-0.3-0.1-0.5-0.2-0.7
					c-0.2-0.2-0.4-0.4-0.6-0.5c0.3-0.1,0.5-0.2,0.6-0.4c0.2-0.2,0.3-0.5,0.3-0.7l0-1.3c0-0.3-0.1-0.6-0.4-0.9
					c-0.2-0.2-0.5-0.4-0.9-0.4l-1.1,0c0,0,0,0,0,0c0,0,0,0,0,0l0,3.6l-0.4,0c0,0,0,0,0,0c0,0,0,0,0,0c0,0,0,0.1,0,0.1c0,0,0,0,0,0
					l0.4,0l0,1.7c0,0,0,0,0,0c0,0,0,0,0.1,0c0,0,0,0,0,0c0,0,0,0,0,0l0-1.7l1,0c0.3,0,0.6,0.1,0.8,0.3c0.2,0.2,0.3,0.5,0.3,0.8
					l0,0.6c0,0,0,0,0,0c0,0,0,0,0,0c0,0,0,0,0,0c0,0,0,0,0,0L103,50.6z M102.6,49c-0.2,0.2-0.5,0.3-0.8,0.3l-1,0l0-3.6l1,0
					c0.3,0,0.6,0.1,0.8,0.3c0.2,0.2,0.3,0.5,0.3,0.8l0,1.3C102.9,48.5,102.8,48.8,102.6,49z M102.8,47c0-0.2-0.1-0.4-0.2-0.6
					c-0.2-0.2-0.4-0.3-0.6-0.3l-0.7,0l0,3.1l0.7,0c0.2,0,0.4-0.1,0.6-0.3c0.2-0.2,0.3-0.4,0.3-0.6L102.8,47z"/>
				<path class="st1" d="M104.3,51.5c-0.1,0.1-0.1,0.1-0.2,0.1c0,0,0,0,0,0c0,0,0,0,0,0c-0.1,0-0.1,0-0.2-0.1
					c-0.1-0.1-0.1-0.1-0.1-0.2l0-5.4c0-0.1,0-0.2,0.1-0.2c0.1-0.1,0.1-0.1,0.2-0.1c0,0,0,0,0,0c0,0,0,0,0,0c0.1,0,0.1,0,0.2,0.1
					c0.1,0.1,0.1,0.1,0.1,0.2l0,5.4C104.4,51.4,104.4,51.4,104.3,51.5z M104.1,45.7C104.1,45.7,104.1,45.7,104.1,45.7
					C104.1,45.7,104.1,45.7,104.1,45.7c-0.1-0.1-0.1-0.1-0.1,0c0,0,0,0,0,0l0,5.4c0,0,0,0,0,0c0,0,0,0,0,0c0,0,0,0,0,0c0,0,0,0,0,0
					L104.1,45.7z"/>
				<path class="st1" d="M108,49.7c-0.1,0.1-0.1,0.1-0.2,0.1l-1.9,0l0,1.5c0,0.1,0,0.2-0.1,0.2c-0.1,0.1-0.1,0.1-0.2,0.1
					c-0.1,0-0.1,0-0.2-0.1c-0.1-0.1-0.1-0.1-0.1-0.2l0-1.5l-0.1,0c-0.1,0-0.2,0-0.2-0.1c-0.1-0.1-0.1-0.1-0.1-0.2
					c0-0.1,0-0.1,0.1-0.2c0.1-0.1,0.1-0.1,0.2-0.1l0.1,0l0-2.7c0-0.3,0.1-0.5,0.3-0.7c0.2-0.2,0.4-0.3,0.7-0.3l1.2,0
					c0.1,0,0.2,0,0.2,0.1c0.1,0.1,0.1,0.1,0.1,0.2c0,0.1,0,0.1-0.1,0.2c-0.1,0.1-0.1,0.1-0.2,0.1l-1.2,0c-0.1,0-0.2,0-0.2,0.1
					c-0.1,0.1-0.1,0.2-0.1,0.2l0,2.7l1.9,0c0.1,0,0.2,0,0.2,0.1c0.1,0.1,0.1,0.1,0.1,0.2C108.1,49.6,108.1,49.7,108,49.7z
					 M107.7,49.4C107.7,49.4,107.7,49.4,107.7,49.4C107.7,49.4,107.7,49.4,107.7,49.4l-2.2,0l0-3c0-0.2,0.1-0.3,0.2-0.4
					c0.1-0.1,0.3-0.2,0.4-0.2l1.2,0c0,0,0,0,0,0c0,0,0,0,0,0c0,0,0,0,0,0c0,0,0,0,0-0.1c0,0,0,0,0,0c0,0,0,0,0,0l-1.2,0
					c-0.2,0-0.4,0.1-0.5,0.2c-0.1,0.1-0.2,0.3-0.2,0.5l0,3l-0.4,0c0,0,0,0,0,0c0,0,0,0,0,0c0,0,0,0.1,0,0.1c0,0,0,0,0,0l0.4,0l0,1.7
					c0,0,0,0,0,0s0,0,0,0c0,0,0,0,0,0c0,0,0,0,0,0l0-1.7l2.1,0c0,0,0,0,0,0C107.7,49.5,107.7,49.5,107.7,49.4
					C107.7,49.5,107.7,49.5,107.7,49.4C107.7,49.4,107.7,49.4,107.7,49.4z"/>
				<path class="st1" d="M111.6,49.8c-0.1,0.1-0.1,0.1-0.2,0.1l-1.9,0l0,0.8c0,0.1,0,0.2,0.1,0.2c0.1,0.1,0.1,0.1,0.2,0.1l1.2,0
					c0.1,0,0.2,0,0.2,0.1c0.1,0.1,0.1,0.1,0.1,0.2c0,0.1,0,0.1-0.1,0.2c-0.1,0.1-0.1,0.1-0.2,0.1l-1.2,0c-0.3,0-0.5-0.1-0.7-0.3
					c-0.2-0.2-0.3-0.4-0.3-0.7l0-0.8l-0.1,0c-0.1,0-0.2,0-0.2-0.1c-0.1-0.1-0.1-0.1-0.1-0.2c0-0.1,0-0.1,0.1-0.2
					c0.1-0.1,0.1-0.1,0.2-0.1l0.1,0l0-2.7c0-0.3,0.1-0.5,0.3-0.7c0.2-0.2,0.4-0.3,0.7-0.3l1.2,0c0.1,0,0.2,0,0.2,0.1
					c0.1,0.1,0.1,0.1,0.1,0.2c0,0.1,0,0.1-0.1,0.2c-0.1,0.1-0.1,0.1-0.2,0.1l-1.2,0c-0.1,0-0.2,0-0.2,0.1c-0.1,0.1-0.1,0.2-0.1,0.2
					l0,2.7l1.9,0c0.1,0,0.2,0,0.2,0.1c0.1,0.1,0.1,0.1,0.1,0.2C111.7,49.6,111.7,49.7,111.6,49.8z M111.3,49.4
					C111.3,49.4,111.3,49.4,111.3,49.4C111.3,49.4,111.3,49.4,111.3,49.4l-2.2,0l0-3c0-0.2,0.1-0.3,0.2-0.4c0.1-0.1,0.3-0.2,0.4-0.2
					l1.2,0c0,0,0,0,0,0c0,0,0,0,0,0c0,0,0,0,0,0c0,0,0,0,0-0.1c0,0,0,0,0,0c0,0,0,0,0,0l-1.2,0c-0.2,0-0.4,0.1-0.5,0.2
					c-0.1,0.1-0.2,0.3-0.2,0.5l0,3l-0.4,0c0,0,0,0,0,0c0,0,0,0,0,0c0,0,0,0.1,0,0.1c0,0,0,0,0,0l0.4,0l0,1c0,0.2,0.1,0.4,0.2,0.5
					c0.1,0.1,0.3,0.2,0.5,0.2l1.2,0c0,0,0,0,0,0c0,0,0,0,0,0c0,0,0,0,0-0.1c0,0,0,0,0,0c0,0,0,0,0,0c0,0,0,0,0,0l-1.2,0
					c-0.2,0-0.3-0.1-0.4-0.2c-0.1-0.1-0.2-0.3-0.2-0.4l0-1l2.1,0c0,0,0,0,0,0C111.3,49.5,111.3,49.5,111.3,49.4
					C111.3,49.5,111.3,49.5,111.3,49.4C111.3,49.4,111.3,49.4,111.3,49.4z"/>
				<path class="st1" d="M122.1,51.6c-0.1,0.1-0.1,0.1-0.2,0.1c-0.1,0-0.1,0-0.2-0.1c-0.1-0.1-0.1-0.1-0.1-0.2l0-5.1
					c-0.3,0-0.5,0.1-0.7,0.3c-0.2,0.2-0.3,0.4-0.3,0.7l0,2.4c0,0.1,0,0.2-0.1,0.2c-0.1,0.1-0.1,0.1-0.2,0.1c0,0,0,0,0,0c0,0,0,0,0,0
					c-0.1,0-0.1,0-0.2-0.1c-0.1-0.1-0.1-0.1-0.1-0.2l0-2.5c0-0.3-0.1-0.5-0.3-0.6c-0.2-0.2-0.4-0.3-0.6-0.3l0,5.1
					c0,0.1,0,0.2-0.1,0.2c-0.1,0.1-0.1,0.1-0.2,0.1s-0.1,0-0.2-0.1c-0.1-0.1-0.1-0.1-0.1-0.2l0-5.7l0.6,0c0.2,0,0.5,0.1,0.7,0.2
					c0.2,0.1,0.4,0.3,0.5,0.4c0.1-0.2,0.3-0.3,0.5-0.4c0.2-0.1,0.4-0.2,0.7-0.2l0.6,0l0,5.7C122.2,51.5,122.1,51.6,122.1,51.6z
					 M121.9,45.9C121.9,45.9,121.9,45.8,121.9,45.9C121.9,45.8,121.9,45.8,121.9,45.9C121.8,45.8,121.8,45.8,121.9,45.9
					C121.8,45.8,121.8,45.8,121.9,45.9l-0.4-0.1c-0.3,0-0.5,0.1-0.8,0.2c-0.2,0.2-0.4,0.4-0.5,0.6c-0.1-0.3-0.2-0.5-0.4-0.6
					c-0.2-0.2-0.5-0.3-0.8-0.3l-0.3,0c0,0,0,0,0,0c0,0,0,0,0,0l0,5.4c0,0,0,0,0,0c0,0,0,0,0,0c0,0,0,0,0,0c0,0,0,0,0,0l0-5.4l0.3,0
					c0.3,0,0.6,0.1,0.8,0.3c0.2,0.2,0.3,0.5,0.3,0.8l0,2.5c0,0,0,0,0,0c0,0,0,0,0,0c0,0,0,0,0,0c0,0,0,0,0,0l0-2.5
					c0-0.3,0.1-0.6,0.3-0.8c0.2-0.2,0.5-0.3,0.8-0.3l0.3,0l0,5.4c0,0,0,0,0,0c0,0,0,0,0.1,0c0,0,0,0,0,0c0,0,0,0,0,0L121.9,45.9z"/>
				<path class="st1" d="M123.1,51.6c-0.1,0.1-0.1,0.1-0.2,0.1c0,0,0,0,0,0c0,0,0,0,0,0c-0.1,0-0.1,0-0.2-0.1
					c-0.1-0.1-0.1-0.1-0.1-0.2l0-5.4c0-0.1,0-0.2,0.1-0.2c0.1-0.1,0.1-0.1,0.2-0.1c0,0,0,0,0,0c0,0,0,0,0,0c0.1,0,0.1,0,0.2,0.1
					c0.1,0.1,0.1,0.1,0.1,0.2l0,5.4C123.2,51.5,123.2,51.6,123.1,51.6z M122.9,45.9C122.9,45.9,122.9,45.9,122.9,45.9
					C122.9,45.8,122.9,45.8,122.9,45.9c-0.1-0.1-0.1-0.1-0.1,0c0,0,0,0,0,0l0,5.4c0,0,0,0,0,0s0,0,0,0c0,0,0,0,0,0c0,0,0,0,0,0
					L122.9,45.9z"/>
				<path class="st1" d="M127.1,51.7c-0.1,0.1-0.1,0.1-0.2,0.1c0,0,0,0,0,0c0,0,0,0,0,0c-0.1,0-0.1,0-0.2-0.1
					c-0.1-0.1-0.1-0.1-0.1-0.2l0-1.5l-1.8,0l0,1.5c0,0.1,0,0.2-0.1,0.2c-0.1,0.1-0.1,0.1-0.2,0.1c-0.1,0-0.1,0-0.2-0.1
					c-0.1-0.1-0.1-0.1-0.1-0.2l0-1.5l-0.1,0c-0.1,0-0.2,0-0.2-0.1c-0.1-0.1-0.1-0.1-0.1-0.2c0,0,0,0,0,0c0,0,0,0,0,0
					c0-0.1,0-0.1,0.1-0.2c0.1-0.1,0.1-0.1,0.2-0.1l0.1,0l0-2.2c0-0.4,0.2-0.8,0.5-1.1c0.3-0.3,0.7-0.4,1.1-0.4
					c0.4,0,0.8,0.2,1.1,0.5c0.3,0.3,0.4,0.7,0.4,1.1l0,4.2C127.2,51.5,127.1,51.6,127.1,51.7z M126.9,47.1c0-0.3-0.1-0.6-0.4-0.9
					c-0.2-0.2-0.5-0.4-0.9-0.4c-0.3,0-0.6,0.1-0.9,0.4c-0.3,0.2-0.4,0.5-0.4,0.9l0,2.4l-0.4,0c0,0,0,0,0,0c0,0,0,0,0,0c0,0,0,0,0,0
					c0,0,0,0,0,0c0,0,0,0,0,0c0,0,0,0,0,0l0.4,0l0,1.7c0,0,0,0,0,0c0,0,0,0,0,0c0,0,0,0,0,0c0,0,0,0,0,0c0,0,0,0,0,0c0,0,0,0,0,0
					l0-1.7l2.3,0l0,1.7c0,0,0,0,0,0c0,0,0,0,0,0c0,0,0,0,0,0c0,0,0,0,0,0c0,0,0,0,0,0c0,0,0,0,0,0L126.9,47.1z M124.4,49.5l0-2.4
					c0-0.3,0.1-0.6,0.3-0.8c0.2-0.2,0.5-0.3,0.8-0.3c0.3,0,0.6,0.1,0.8,0.3c0.2,0.2,0.3,0.5,0.3,0.8l0,2.4L124.4,49.5z M126.6,47.2
					c0-0.2-0.1-0.5-0.3-0.6c-0.2-0.2-0.4-0.3-0.6-0.3s-0.5,0.1-0.6,0.3c-0.2,0.2-0.3,0.4-0.3,0.6l0,2.2l1.8,0L126.6,47.2z"/>
				<path class="st1" d="M131.2,51.7c-0.1,0-0.1,0.1-0.2,0.1c-0.1,0-0.1,0-0.2-0.1c-0.1-0.1-0.1-0.1-0.1-0.2l0-5.1
					c-0.3,0-0.5,0.1-0.7,0.3c-0.2,0.2-0.3,0.4-0.3,0.7l0,2.4c0,0.1,0,0.2-0.1,0.2c-0.1,0.1-0.1,0.1-0.2,0.1c0,0,0,0,0,0c0,0,0,0,0,0
					c-0.1,0-0.1,0-0.2-0.1c-0.1-0.1-0.1-0.1-0.1-0.2l0-2.5c0-0.3-0.1-0.5-0.3-0.6c-0.2-0.2-0.4-0.3-0.6-0.3l0,5.1
					c0,0.1,0,0.2-0.1,0.2c-0.1,0-0.1,0.1-0.2,0.1c-0.1,0-0.1,0-0.2-0.1c-0.1-0.1-0.1-0.1-0.1-0.2l0-5.7l0.6,0c0.2,0,0.5,0.1,0.7,0.2
					c0.2,0.1,0.4,0.3,0.5,0.4c0.1-0.2,0.3-0.3,0.5-0.4c0.2-0.1,0.4-0.2,0.7-0.2l0.6,0l0,5.7C131.3,51.6,131.3,51.7,131.2,51.7z
					 M131,45.9C131,45.9,131,45.9,131,45.9C131,45.9,131,45.9,131,45.9C131,45.9,131,45.9,131,45.9C131,45.9,131,45.9,131,45.9
					l-0.4-0.1c-0.3,0-0.5,0.1-0.8,0.2c-0.2,0.2-0.4,0.4-0.5,0.6c-0.1-0.3-0.2-0.5-0.4-0.6c-0.2-0.2-0.5-0.3-0.8-0.3l-0.3,0
					c0,0,0,0,0,0c0,0,0,0,0,0l0,5.4c0,0,0,0,0,0c0,0,0,0,0,0c0,0,0,0,0,0c0,0,0,0,0,0l0-5.4l0.3,0c0.3,0,0.6,0.1,0.8,0.3
					s0.3,0.5,0.3,0.8l0,2.5c0,0,0,0,0,0c0,0,0,0,0,0c0,0,0,0,0,0c0,0,0,0,0,0l0-2.5c0-0.3,0.1-0.6,0.3-0.8c0.2-0.2,0.5-0.3,0.8-0.3
					l0.3,0l0,5.4c0,0,0,0,0,0c0,0,0,0,0.1,0c0,0,0,0,0,0c0,0,0,0,0,0L131,45.9z"/>
				<path class="st1" d="M132.3,51.7c-0.1,0.1-0.1,0.1-0.2,0.1c0,0,0,0,0,0c0,0,0,0,0,0c-0.1,0-0.1,0-0.2-0.1
					c-0.1-0.1-0.1-0.1-0.1-0.2l0-5.4c0-0.1,0-0.2,0.1-0.2c0.1-0.1,0.1-0.1,0.2-0.1c0,0,0,0,0,0c0,0,0,0,0,0c0.1,0,0.1,0,0.2,0.1
					c0.1,0.1,0.1,0.1,0.1,0.2l0,5.4C132.4,51.6,132.3,51.7,132.3,51.7z M132.1,46C132.1,45.9,132.1,45.9,132.1,46
					C132.1,45.9,132,45.9,132.1,46c-0.1-0.1-0.1-0.1-0.1,0c0,0,0,0,0,0l0,5.4c0,0,0,0,0,0c0,0,0,0,0,0c0,0,0,0,0,0c0,0,0,0,0,0
					L132.1,46z"/>
			</g>
			<polygon class="st0" points="115,46.5 115.6,47.7 116.9,47.9 115.9,48.8 116.2,50.1 115,49.5 113.8,50.1 114.1,48.8 113.2,47.9 
				114.4,47.7 			"/>
		</g>
	</g>
	<g id="XMLID_45_">
		<g>
			<path id="XMLID_280_" class="st1" d="M225.9,61.9c-4.4,0-8-3.6-8-8c0-4.4,3.6-8,8-8c4.4,0,8,3.6,8,8
				C233.9,58.3,230.3,61.9,225.9,61.9 M225.9,45.4c-4.7,0-8.5,3.8-8.5,8.5c0,4.7,3.8,8.5,8.5,8.5c4.7,0,8.5-3.8,8.5-8.5
				C234.4,49.2,230.6,45.4,225.9,45.4"/>
			<path id="XMLID_279_" class="st1" d="M218.6,53.9c2.9,0.9,5.6,3.7,6.5,7.4C220.9,60.7,218.6,57.3,218.6,53.9"/>
			<path id="XMLID_278_" class="st1" d="M233.2,53.9c-2.9,0.9-5.7,3.7-6.5,7.4C230.8,60.7,233.2,57.3,233.2,53.9"/>
			<path id="XMLID_277_" class="st1" d="M225.9,61.2c-3.1-4.8-2.4-11.3,0-14.9C228.2,49.9,228.9,56.4,225.9,61.2"/>
			<polygon id="XMLID_276_" class="st1" points="236.7,46.4 238.6,46.4 238.6,49 242,49 242,46.4 243.9,46.4 243.9,53.1 242,53.1 
				242,50.2 238.6,50.2 238.6,53.1 236.7,53.1 			"/>
			<polygon id="XMLID_275_" class="st1" points="245.4,46.4 251.8,46.4 251.8,47.6 247.3,47.6 247.3,49.1 251.4,49.1 251.4,50.2 
				247.3,50.2 247.3,51.8 251.9,51.8 251.9,53.1 245.4,53.1 			"/>
			<path id="XMLID_272_" class="st1" d="M253,46.4h4.6c1.5,0,2.5,0.8,2.5,1.8c0,0.8-0.4,1.4-1.3,1.7v0c0.9,0.2,1.2,0.9,1.2,1.6
				c0,0.4,0,1.2,0.4,1.6h-1.9c-0.2-0.4-0.2-1.1-0.3-1.6c-0.1-0.7-0.5-1-1.4-1h-1.9v2.6H253V46.4z M254.8,49.4h2.1
				c0.8,0,1.3-0.3,1.3-1c0-0.6-0.4-0.9-1.3-0.9h-2.1V49.4z"/>
			<path id="XMLID_268_" class="st1" d="M261.4,46.4h4c1.6,0,2.7,0.4,2.7,1.7c0,0.7-0.4,1.1-1.2,1.4c1,0.2,1.6,0.9,1.6,1.7
				c0,1.4-1.5,1.9-3,1.9h-4.1V46.4z M265.2,49.1c0.7,0,1.1-0.2,1.1-0.8c0-0.6-0.6-0.8-1.3-0.8h-1.8v1.6H265.2z M265.3,51.9
				c0.7,0,1.4-0.2,1.4-0.9c0-0.7-0.5-1-1.3-1h-2v1.8H265.3z"/>
			<path id="XMLID_265_" class="st1" d="M271.8,46.4h1.9l3.2,6.7h-1.9l-0.6-1.5h-3.2l-0.7,1.5h-1.9L271.8,46.4z M273.8,50.5
				l-1.1-2.4h0l-1.1,2.4H273.8z"/>
			<polygon id="XMLID_264_" class="st1" points="277.5,46.4 279.4,46.4 279.4,51.8 283.5,51.8 283.5,53.1 277.5,53.1 			"/>
			<rect id="XMLID_263_" x="284.2" y="46.4" class="st1" width="1.9" height="6.7"/>
			<polygon id="XMLID_262_" class="st1" points="287.5,46.4 293.5,46.4 293.5,47.6 289.4,47.6 289.4,49.2 293,49.2 293,50.3 
				289.4,50.3 289.4,53.1 287.5,53.1 			"/>
			<polygon id="XMLID_261_" class="st1" points="294.5,46.4 300.8,46.4 300.8,47.6 296.3,47.6 296.3,49.1 300.5,49.1 300.5,50.2 
				296.3,50.2 296.3,51.8 300.9,51.8 300.9,53.1 294.5,53.1 			"/>
			<polygon id="XMLID_260_" class="st1" points="236.7,54.6 238.6,54.6 242.1,59.1 242.1,59.1 242.1,54.6 243.9,54.6 243.9,61.3 
				242,61.3 238.5,56.8 238.5,56.8 238.5,61.3 236.7,61.3 			"/>
			<path id="XMLID_259_" class="st1" d="M252.7,58.7c0,1.8-1.4,2.7-3.6,2.7c-2.3,0-3.6-0.9-3.6-2.7v-4.1h1.9v4.1
				c0,0.7,0.2,1.4,1.8,1.4c1.3,0,1.8-0.4,1.8-1.4v-4.1h1.9V58.7z"/>
			<polygon id="XMLID_258_" class="st1" points="256.1,55.8 253.6,55.8 253.6,54.6 260.5,54.6 260.5,55.8 258,55.8 258,61.3 
				256.1,61.3 			"/>
			<path id="XMLID_255_" class="st1" d="M261.5,54.6h4.6c1.5,0,2.5,0.8,2.5,1.8c0,0.8-0.4,1.4-1.3,1.7v0c0.9,0.2,1.2,0.9,1.2,1.6
				c0,0.4,0,1.2,0.4,1.6h-1.9c-0.2-0.4-0.2-1.1-0.3-1.6c-0.1-0.7-0.5-1-1.4-1h-1.9v2.6h-1.9V54.6z M263.3,57.6h2.1
				c0.8,0,1.3-0.3,1.3-1c0-0.6-0.4-0.9-1.3-0.9h-2.1V57.6z"/>
			<rect id="XMLID_254_" x="270.3" y="54.6" class="st1" width="1.9" height="6.7"/>
			<polygon id="XMLID_253_" class="st1" points="275.8,55.8 273.3,55.8 273.3,54.6 280.3,54.6 280.3,55.8 277.7,55.8 277.7,61.3 
				275.8,61.3 			"/>
			<rect id="XMLID_252_" x="281.4" y="54.6" class="st1" width="1.9" height="6.7"/>
			<path id="XMLID_249_" class="st1" d="M288.5,54.4c2.6,0,4.2,1.5,4.2,3.5c0,1.9-1.6,3.5-4.2,3.5c-2.6,0-4.2-1.5-4.2-3.5
				C284.3,56,285.8,54.4,288.5,54.4 M288.5,60.2c1.7,0,2.3-1.1,2.3-2.2c0-1.2-0.6-2.3-2.3-2.3c-1.7,0-2.3,1.1-2.3,2.3
				C286.1,59.1,286.8,60.2,288.5,60.2"/>
			<polygon id="XMLID_248_" class="st1" points="293.7,54.6 295.6,54.6 299.2,59.1 299.2,59.1 299.2,54.6 300.9,54.6 300.9,61.3 
				299.1,61.3 295.5,56.8 295.5,56.8 295.5,61.3 293.7,61.3 			"/>
		</g>
	</g>
	<line class="st2" x1="195.5" y1="28.5" x2="195.5" y2="76.5"/>
</g>
</svg>
