<?xml version="1.0" encoding="utf-8"?>
<!-- Generator: Adobe Illustrator 19.0.0, SVG Export Plug-In . SVG Version: 6.00 Build 0)  -->
<svg version="1.1" id="Layer_1" xmlns="http://www.w3.org/2000/svg" xmlns:xlink="http://www.w3.org/1999/xlink" x="0px" y="0px"
	 viewBox="0 0 304.5 118.5" style="enable-background:new 0 0 304.5 118.5;" xml:space="preserve">
<style type="text/css">
	.st0{fill:#FFFFFF;}
</style>
<g id="XMLID_7_">
	<path id="XMLID_53_" class="st0" d="M56.8,85.9c-12.7,0-23-10.3-23-23c0-12.7,10.3-23,23-23c12.7,0,23,10.3,23,23
		C79.8,75.6,69.5,85.9,56.8,85.9 M56.8,38.3c-13.5,0-24.5,11-24.5,24.5c0,13.5,11,24.5,24.5,24.5c13.5,0,24.5-11,24.5-24.5
		C81.3,49.3,70.3,38.3,56.8,38.3"/>
	<path id="XMLID_52_" class="st0" d="M35.7,62.7c8.4,2.6,16.3,10.8,18.6,21.2C42.6,82.4,35.7,72.7,35.7,62.7"/>
	<path id="XMLID_51_" class="st0" d="M77.8,62.7c-8.4,2.6-16.4,10.8-18.6,21.2C70.9,82.4,77.8,72.7,77.8,62.7"/>
	<path id="XMLID_50_" class="st0" d="M56.8,83.9c-8.9-13.8-7-32.7,0-42.8C63.5,51.3,65.5,70.2,56.8,83.9"/>
	<polygon id="XMLID_48_" class="st0" points="87.9,41.2 93.3,41.2 93.3,48.6 103.3,48.6 103.3,41.2 108.7,41.2 108.7,60.4 
		103.3,60.4 103.3,52.1 93.3,52.1 93.3,60.4 87.9,60.4 	"/>
	<polygon id="XMLID_46_" class="st0" points="113,41.2 131.3,41.2 131.3,44.8 118.4,44.8 118.4,48.9 130.3,48.9 130.3,52.2 
		118.4,52.2 118.4,56.9 131.6,56.9 131.6,60.4 113,60.4 	"/>
	<path id="XMLID_43_" class="st0" d="M134.8,41.2h13.2c4.4,0,7.2,2.4,7.2,5.3c0,2.3-1.1,4-3.9,4.8v0.1c2.6,0.6,3.4,2.5,3.6,4.5
		c0.1,1.2,0,3.5,1,4.5h-5.4c-0.6-1.2-0.6-3.1-0.9-4.6c-0.4-2-1.4-2.9-4.1-2.9h-5.4v7.5h-5.4V41.2z M140.2,49.9h5.9
		c2.4,0,3.7-0.8,3.7-2.7c0-1.9-1.3-2.7-3.7-2.7h-5.9V49.9z"/>
	<path id="XMLID_39_" class="st0" d="M159.2,41.2h11.5c4.7,0,7.8,1.2,7.8,4.8c0,1.9-1.2,3.2-3.3,4c3,0.7,4.5,2.5,4.5,4.9
		c0,3.9-4.2,5.6-8.7,5.6h-11.9V41.2z M170.1,49c1.9,0,3.3-0.7,3.3-2.3c0-1.8-1.8-2.2-3.7-2.2h-5V49H170.1z M170.4,57.1
		c2.1,0,4-0.5,4-2.5c0-2-1.5-2.7-3.9-2.7h-5.9v5.3H170.4z"/>
	<path id="XMLID_35_" class="st0" d="M189,41.2h5.5l9.2,19.2h-5.6l-1.9-4.3h-9.2l-1.9,4.3h-5.5L189,41.2z M194.8,53l-3.1-7h-0.1
		l-3.2,7H194.8z"/>
	<polygon id="XMLID_32_" class="st0" points="205.4,41.2 210.8,41.2 210.8,56.9 222.8,56.9 222.8,60.4 205.4,60.4 	"/>
	<rect id="XMLID_31_" x="224.7" y="41.2" class="st0" width="5.4" height="19.2"/>
	<polygon id="XMLID_30_" class="st0" points="234.4,41.2 251.7,41.2 251.7,44.8 239.8,44.8 239.8,49.2 250.1,49.2 250.1,52.5 
		239.8,52.5 239.8,60.4 234.4,60.4 	"/>
	<polygon id="XMLID_29_" class="st0" points="254.4,41.2 272.7,41.2 272.7,44.8 259.8,44.8 259.8,48.9 271.6,48.9 271.6,52.2 
		259.8,52.2 259.8,56.9 273,56.9 273,60.4 254.4,60.4 	"/>
	<polygon id="XMLID_28_" class="st0" points="87.9,64.9 93.3,64.9 103.5,77.7 103.6,77.7 103.6,64.9 108.7,64.9 108.7,84.1 
		103.3,84.1 93.1,71.2 93,71.2 93,84.1 87.9,84.1 	"/>
	<path id="XMLID_25_" class="st0" d="M133.9,76.8c0,5.2-3.9,7.7-10.5,7.7c-6.6,0-10.4-2.5-10.4-7.7V64.9h5.4v11.9
		c0,2.1,0.7,4.2,5.1,4.2c3.8,0,5.1-1.3,5.1-4.2V64.9h5.4V76.8z"/>
	<polygon id="XMLID_24_" class="st0" points="143.9,68.4 136.5,68.4 136.5,64.9 156.6,64.9 156.6,68.4 149.3,68.4 149.3,84.1 
		143.9,84.1 	"/>
	<path id="XMLID_21_" class="st0" d="M159.3,64.9h13.2c4.4,0,7.2,2.4,7.2,5.3c0,2.3-1.1,4-3.9,4.8V75c2.6,0.6,3.4,2.5,3.6,4.5
		c0.1,1.2,0,3.5,1,4.5H175c-0.6-1.2-0.6-3.1-0.9-4.6c-0.4-2-1.4-2.9-4.1-2.9h-5.4v7.5h-5.4V64.9z M164.7,73.5h5.9
		c2.4,0,3.7-0.8,3.7-2.7c0-1.9-1.3-2.7-3.7-2.7h-5.9V73.5z"/>
	<rect id="XMLID_20_" x="184.8" y="64.9" class="st0" width="5.4" height="19.2"/>
	<polygon id="XMLID_19_" class="st0" points="200.7,68.4 193.4,68.4 193.4,64.9 213.4,64.9 213.4,68.4 206.1,68.4 206.1,84.1 
		200.7,84.1 	"/>
	<rect id="XMLID_18_" x="216.6" y="64.9" class="st0" width="5.4" height="19.2"/>
	<path id="XMLID_9_" class="st0" d="M237,64.4c7.6,0,12.1,4.4,12.1,10.1c0,5.5-4.5,10-12.1,10c-7.6,0-12.1-4.4-12.1-10
		C225,68.8,229.5,64.4,237,64.4 M237,81c4.8,0,6.7-3.2,6.7-6.4c0-3.4-1.8-6.6-6.7-6.6c-4.8,0-6.7,3.2-6.7,6.6
		C230.4,77.7,232.2,81,237,81"/>
	<polygon id="XMLID_8_" class="st0" points="252.3,64.9 257.6,64.9 267.9,77.7 267.9,77.7 267.9,64.9 273,64.9 273,84.1 267.6,84.1 
		257.4,71.2 257.3,71.2 257.3,84.1 252.3,84.1 	"/>
</g>
</svg>
