<svg xmlns="http://www.w3.org/2000/svg" xmlns:xlink="http://www.w3.org/1999/xlink" version="1.1" style="enable-background:new 0 0 219 159.5;" xml:space="preserve" width="100.1224488604322" height="102.9183674263785"><rect id="backgroundrect" width="100%" height="100%" x="0" y="0" fill="none" stroke="none" class=""/>
<style type="text/css">
	.st0{fill:#FFFFFF;}
	.st1{fill:#1E1E1E;}
</style>

<g class="currentLayer"><title>Layer 1</title><g id="svg_1" class="">
	<circle class="st0" cx="51.336734010970986" cy="51.12856864929199" r="43.57958984375" id="svg_2"/>
	<g id="svg_3">
		<path class="st1" d="M50.16418895939628,83.4285717010498 c-10.65061755180359,-0.4 -19.93326587677002,-5.6 -26.479975748062134,-15.8 c-0.5862725257873513,-1 -0.6839846134185841,-2 -0.19542417526245157,-3 c3.3222109794616697,-6.7 8.598663711547852,-10.7 15.829358196258545,-11.8 c0.7816967010498047,-0.1 1.856529664993286,0.2 2.5405142784118655,0.7000000000000006 c5.862725257873535,4.1 13.09341974258423,4.1 18.956145000457763,0.1 c1.1725450515747071,-0.8 2.3450901031494142,-0.9 3.713059329986572,-0.7000000000000006 c6.4489977836608885,1.4 11.236890077590942,5 14.461388969421387,10.9 c0.8794087886810303,1.5 0.7816967010498047,2.8 -0.19542417526245157,4.3 C72.83339328984061,77.62857170104981 62.378199913299476,83.4285717010498 50.16418895939628,83.4285717010498 zM50.26190104702751,78.9285717010498 c10.162057113647462,0.1 19.05385708808899,-4.5 24.33030982017517,-12.1 c0.48856043815612793,-0.8 0.48856043815612793,-1.3 0,-2 c-2.4428021907806396,-3.8 -5.76501317024231,-6.3 -10.064345026016236,-7.3 c-0.5862725257873513,-0.1 -1.3679692268371584,0 -1.856529664993286,0.3000000000000003 c-7.328406572341919,4.3 -14.656813144683838,4.4 -21.985219717025757,0.1 C39.80670767048637,57.5285717010498 39.12272305706779,57.428571701049805 38.14560218075553,57.62857170104981 c-4.299331855773926,1.2 -7.621542835235595,3.9 -10.064345026016236,7.6 c-0.19542417526245157,0.3000000000000003 0,1.1 0.19542417526245157,1.5 C34.041694500244056,74.7285717010498 41.76094942311088,78.7285717010498 50.26190104702751,78.9285717010498 z" id="svg_4"/>
		<path class="st1" d="M51.43444609860221,53.12857170104981 c-9.184936237335206,0 -16.8064790725708,-7.8 -16.8064790725708,-17.2 c0,-9.4 7.621542835235595,-17.1 16.8064790725708,-17.1 c9.184936237335206,0 16.8064790725708,7.8 16.8064790725708,17.2 C68.14321308354178,45.428571701049805 60.619382335937416,53.12857170104981 51.43444609860221,53.12857170104981 zM63.843881227767874,36.0285717010498 c0,-6.9 -5.569588994979859,-12.6 -12.311723041534423,-12.7 c-6.839846134185791,-0.1 -12.507147216796875,5.7 -12.507147216796875,12.7 c0,7 5.6673010826110835,12.8 12.507147216796875,12.7 C58.274292232788,48.62857170104981 63.843881227767874,42.928571701049805 63.843881227767874,36.0285717010498 z" id="svg_5"/>
	</g>
</g></g></svg>