<svg xmlns="http://www.w3.org/2000/svg" xmlns:xlink="http://www.w3.org/1999/xlink" version="1.1" style="enable-background:new 0 0 327.2 104.5;" xml:space="preserve" width="173.95652197574634" height="73.26086995957701"><rect id="backgroundrect" width="100%" height="100%" x="0" y="0" fill="none" stroke="none" class=""/>
<style type="text/css">
	.st0{fill:#D60057;}
	.st1{fill:#FFFFFF;}
	.st2{fill:none;stroke:#D60057;stroke-miterlimit:10;}
</style>

<g class="currentLayer"><title>Layer 1</title><g id="svg_1" class="">
	<g id="svg_2">
		<g id="svg_3">
			<g id="svg_4">
				<path class="st0" d="M9.586956024169922,54.321739959716794 l0,-1 l4.7,0 c0.1,0 0.4,-0.2 0.7000000000000001,-0.5 c0.30000000000000004,-0.4 0.30000000000000004,-1.1 0,-2 c-0.8,-2.6 -3.3,-11.7 -3.5,-12.3 c-0.2,-0.6000000000000001 -0.4,-1.9 0.6000000000000001,-2.4 c0.4,-0.2 0.9,-0.4 1.5,-0.2 c0.6000000000000001,0.30000000000000004 0.9,1 1.2,2.2 c0.9,4.5 3,11.6 3,11.6 c0,0 0.30000000000000004,0.8 0.7000000000000001,1.5 c0.2,0.30000000000000004 0.5,0.5 0.7000000000000001,0.5 c0.2,0 0.5,-0.2 0.7000000000000001,-0.6000000000000001 c1.3,-2.4 3.6,-12.6 3.6,-12.7 c0,-0.1 0.30000000000000004,-1.4 1.1,-1.9 c0.30000000000000004,-0.2 0.7000000000000001,-0.30000000000000004 1.1,-0.2 c0.9,0.2 1.1,0.8 0.8,2.2 c-0.8,3.7 -3,12.2 -3,12.3 c-0.1,0.4 -0.30000000000000004,1.5 0.1,2.1 c0.2,0.30000000000000004 0.7000000000000001,0.5 1.3,0.5 c2.1,0 3.2,0 3.7,0 l9.2,-18.1 l5.1,10.4 l-5.4,0 c0,0 -1,0 -1.1,0.5 c0,0.4 0.1,0.6000000000000001 0.2,0.8 c0.2,0.2 0.4,0.1 0.4,0.1 l6.9,0.1 l3.2,6.8 l12.1,0.1 c0,0 0.30000000000000004,0 0.5,-0.2 c0.2,-0.2 0.2,-0.4 0.2,-0.8 c0,-0.6000000000000001 -0.9,-0.7000000000000001 -1,-0.7000000000000001 c-0.6000000000000001,0 -5.5,0.4 -8.2,-2.1 c-1.2,-1.1 -1.9,-2.5 -1.9,-4.3 c0,-2.9 -0.2,-4.2 -0.1,-4.2 l0,0 l0.2,0 c0,-0.1 1.1,-5.6 7.1,-5.6 c3.9,0 6.2,1.7000000000000002 6.7,5.1 l0,0.1 c0.1,1 0,1.9 0,2.1 c0,0.5 -0.30000000000000004,1.2 -1.2,1.3 c-0.7000000000000001,0 -1,-0.2 -1.2,-0.4 c-0.4,-0.4 -0.4,-1 -0.4,-1.2 l-0.1,-1.5 c0,-0.30000000000000004 -0.6000000000000001,-3 -3.8,-2.6 c-3.2,0.4 -3.8,2.4 -3.9,2.8 l0,4.5 c0,0.1 0.1,2.2 2.6,2.4 c2.8,0.2 5.1,0.1 5.2,0.1 c0.9,0.1 2.6,0.6000000000000001 2.9,2.5 c0.30000000000000004,2.1 0.6000000000000001,2.1 1.3,2.1 c1.3,0 1.3,-1.1 1.3,-1.2 l0,-0.1 l0,-0.1 l8.4,-16.4 l5,10.1 l-5.9,0 c-0.2,0 -0.8,0.1 -0.8,0.6000000000000001 c0,0.6000000000000001 0.5,0.7000000000000001 0.7000000000000001,0.7000000000000001 l6.6,0 l3.5,6.5 l7.1,0.1 l0,0 c0,0 0.5,0.1 0.8,-0.2 c0.30000000000000004,-0.30000000000000004 0.4,-0.9 0.4,-1.3 c0,-2.1 0.1,-10.3 0.1,-12.5 l-5.4,0 c-0.1,0 -0.6000000000000001,0 -0.9,-0.30000000000000004 c-0.4,-0.30000000000000004 -0.6000000000000001,-0.8 -0.6000000000000001,-1.5 c0,-0.7000000000000001 0.30000000000000004,-1.1 0.5,-1.3 c0.6000000000000001,-0.5 1.5,-0.5 1.7000000000000002,-0.5 L99.08695602416992,36.5217399597168 l0,0 c0.4,0.1 1.2,0.6000000000000001 1.2,1.9 c-0.1,0.7000000000000001 -0.30000000000000004,1.2 -0.7000000000000001,1.4 c-0.5,0.4 -1.2,0.30000000000000004 -1.4,0.30000000000000004 l-4.3,0 l-0.2,12.1 l0,0 c0,0.30000000000000004 0.1,1.1 0.5,1.5 c0.2,0.2 0.5,0.4 0.8,0.4 l7,0.2 l0,0 c0,0 0.2,-0.1 0.30000000000000004,-0.30000000000000004 c0.2,-0.2 0.30000000000000004,-0.7000000000000001 0.30000000000000004,-1.2 l0.1,-13.6 c0,-0.30000000000000004 -0.1,-1.6 0.5,-2.3 c0.2,-0.30000000000000004 0.6000000000000001,-0.4 0.9,-0.4 c0.30000000000000004,0 0.7000000000000001,0.1 0.9,0.4 c0.7000000000000001,0.7000000000000001 0.6000000000000001,2.3 0.6000000000000001,2.5 l-0.1,13.2 c0,0.2 0.2,1.4 1.4,1.4 l7.7,0.1 l0,-1.5 c-1.5,-0.4 -6.3,-2 -6.3,-8.2 c0,-3.5 2,-6.1 5.6,-7.4 c1.4,-0.5 4,-0.6000000000000001 5.7,0.1 c2.2,0.9 4.8,3.1 4.8,7.9 c0,2.6 -0.8,4.7 -2.3,6 c-1.6,1.5 -3.7,1.7000000000000002 -4.6,1.7000000000000002 l0,1.4 l9.1,0.1 l0.1,-18.4 l8.6,16.9 l0.1,-14.3 c0,-0.1 0,-0.7000000000000001 0.4,-1.2 c0.2,-0.2 0.6000000000000001,-0.5 1.3,-0.5 c0.6000000000000001,0 1,0.2 1.3,0.5 c0.30000000000000004,0.4 0.30000000000000004,0.8 0.30000000000000004,1 l-0.1,14.8 c0,0 0,0.6000000000000001 0.30000000000000004,0.9 c0.2,0.2 0.4,0.30000000000000004 0.7000000000000001,0.30000000000000004 c1.1,0 1.2,-1 1.2,-1.2 l0,-4.3 c0,-0.6000000000000001 0.5,-1.5 1.7000000000000002,-1.5 c0.6000000000000001,0 1,0.30000000000000004 1.2,0.5 c0.4,0.5 0.30000000000000004,1.1 0.30000000000000004,1.2 l0,1.8 c0,0.2 0.2,1.1 2,1.1 c2.2,0 2.2,-0.9 2.3,-1.8 c0.1,-1.7000000000000002 -0.5,-2.6 -1.8,-2.7 c-1.7000000000000002,-0.2 -5.5,-0.6000000000000001 -5.5,-4 c0,-2 0.1,-4.1 1.5,-5.5 c0.9,-0.9 2.2,-1.3 3.9,-1.3 c4,-0.2 5,2.8 5.1,3.9 c0.1,1.1 0,2.2 0,2.3 c0,0.6000000000000001 -0.5,1.5 -1.5,1.5 c-1.1,0 -1.5,-1.2 -1.5,-1.8 l0,-0.1 l0,-0.1 c0,0 0.2,-1.3 -0.30000000000000004,-2 c-0.30000000000000004,-0.30000000000000004 -0.8,-0.5 -1.4,-0.5 h-0.1 c-0.9,0 -1.5,0.2 -2,0.5 c-0.30000000000000004,0.30000000000000004 -0.5,0.8 -0.6000000000000001,1.4 c-0.1,1.8 0.5,2 0.9,2.1 c0.1,0 0.5,0.1 0.8,0.1 c1.4,0.1 4.1,0.4 5,2.6 c0.8,2 0.4,4.7 -0.30000000000000004,6.1 c-0.30000000000000004,0.6000000000000001 -0.7000000000000001,1 -1.1,1.2 l3.5,0 l0,1 l-6.3,0 l-0.1,-1 c0.6000000000000001,-0.1 1.7000000000000002,-0.30000000000000004 2.1,-0.7000000000000001 l0.1,-0.1 l0.1,0 c0.2,-0.1 0.5,-0.30000000000000004 0.7000000000000001,-0.8 c0.6000000000000001,-1.2 0.9,-3.6 0.30000000000000004,-5.3 c-0.6000000000000001,-1.7000000000000002 -2.8,-1.9 -4.2,-2 c-0.5,0 -0.8,-0.1 -1,-0.2 c-1.1,-0.4 -1.6,-1.4 -1.5,-3.1 c0,-0.9 0.30000000000000004,-1.6 0.9,-2.1 c0.6000000000000001,-0.5 1.5,-0.8 2.6,-0.7000000000000001 c1,-0.1 1.7000000000000002,0.2 2.2,0.8 c0.8,0.9 0.6000000000000001,2.4 0.6000000000000001,2.7 c0,0.2 0.1,0.8 0.5,0.8 c0.5,0 0.5,-0.4 0.6000000000000001,-0.6000000000000001 c0,0 0.1,-1.1 0,-2.2 c0,-0.9 -0.9,-3.1 -4.1,-3 c-1.5,0 -2.5,0.30000000000000004 -3.2,1 c-1.1,1.1 -1.2,3 -1.2,4.8 c0,2.3 2.2,2.8 4.7,3.1 c1.8,0.2 2.8,1.6 2.7,3.8 c-0.1,1.3 -0.5,2.7 -3.3,2.7 c-2.3,0 -3,-1.3 -3,-2 l0,-2 l0,0 c0,-0.1 0,-0.30000000000000004 -0.1,-0.5 c-0.1,-0.1 -0.2,-0.1 -0.4,-0.1 c-0.7000000000000001,0 -0.7000000000000001,0.4 -0.7000000000000001,0.5 l0,4.3 c0,0.7000000000000001 -0.5,2.1 -2.2,2.1 c-0.6000000000000001,0 -1.1,-0.2 -1.4,-0.5 c-0.6000000000000001,-0.6000000000000001 -0.6000000000000001,-1.5 -0.6000000000000001,-1.6 l0.1,-14.8 l0,-0.1 l0,0 c0,0 0,-0.2 -0.1,-0.30000000000000004 c-0.1,-0.1 -0.30000000000000004,-0.1 -0.5,-0.1 c-0.30000000000000004,0 -0.4,0.1 -0.5,0.2 c-0.2,0.2 -0.1,0.4 -0.1,0.4 l0,0 l-0.1,18.3 l-8.6,-16.9 l-0.1,15.4 l-11,-0.1 l0,-3.4 l0.5,0.1 c0,0 2.6,0.2 4.4,-1.4 c1.3,-1.1 1.9,-2.9 1.9,-5.3 c0,-4.3 -2.3,-6.2 -4.2,-7 c-1.4,-0.6000000000000001 -3.7,-0.6000000000000001 -5,-0.1 c-2.3,0.8 -5,2.6 -5,6.5 c0,6.4 5.6,7.3 5.9,7.3 l0.4,0.1 l0,3.3 l-8.6,-0.1 c-1.8,0 -2.3,-1.5 -2.4,-2.3 l0.1,-13.3 c0,-0.6000000000000001 0,-1.5 -0.30000000000000004,-1.8 c-0.1,-0.1 -0.1,-0.1 -0.2,-0.1 c-0.1,0 -0.2,0 -0.2,0.1 c-0.30000000000000004,0.30000000000000004 -0.30000000000000004,1.1 -0.30000000000000004,1.5 l0,0.1 l-0.1,13.5 c0,0.9 -0.2,1.5 -0.7000000000000001,1.9 c-0.4,0.4 -0.9,0.4 -1,0.4 l-7,-0.1 c-0.6000000000000001,0 -1.1,-0.2 -1.5,-0.6000000000000001 c-0.7000000000000001,-0.8 -0.6000000000000001,-2 -0.6000000000000001,-2.3 l0.1,-13 l5.3,0 l0.1,0 c0.1,0 0.4,0.1 0.6000000000000001,-0.1 c0.2,-0.1 0.30000000000000004,-0.4 0.30000000000000004,-0.7000000000000001 c0,-0.6000000000000001 -0.30000000000000004,-0.8 -0.4,-0.8 l-12.8,-0.1 l0,0 c-0.2,0 -0.7000000000000001,0 -0.9,0.2 c0,0 -0.2,0.2 -0.2,0.5 c0,0.4 0.1,0.7000000000000001 0.2,0.8 c0.1,0.1 0.2,0.1 0.2,0.1 l0.1,0 l6.4,0 l0,0.5 c0,0.1 -0.1,10.6 -0.1,12.9 c0,0.9 -0.2,1.6 -0.7000000000000001,2.1 c-0.6000000000000001,0.5 -1.4,0.4 -1.6,0.4 l-7.6,-0.1 l-3.5,-6.5 l-6,0 c-0.7000000000000001,0 -1.7000000000000002,-0.5 -1.7000000000000002,-1.6 c0,-0.7000000000000001 0.30000000000000004,-1.2 0.9,-1.4 c0.4,-0.2 0.8,-0.2 0.8,-0.2 l4.3,0 l-3.4,-7 l-7.4,14.6 c-0.1,0.7000000000000001 -0.6000000000000001,2.1 -2.3,2 c-1.7000000000000002,0 -2,-1.2 -2.2,-2.9 c-0.2,-1.5 -1.9,-1.7000000000000002 -2,-1.7000000000000002 c0,0 -2.4,0 -5.2,-0.1 c-2.7,-0.2 -3.4,-2.3 -3.5,-3.4 l0,-4.6 l0,0 c0,-0.1 0.6000000000000001,-3.1 4.7,-3.6 c4.2,-0.5 4.9,3.4 4.9,3.4 l0,0 l0.1,1.6 l0,0 c0,0.1 0,0.30000000000000004 0.1,0.5 c0.1,0.1 0.2,0.1 0.5,0.1 c0.30000000000000004,0 0.30000000000000004,-0.2 0.30000000000000004,-0.4 l0,-0.1 l0,-0.1 c0,0 0.2,-0.8 0,-1.8 l0,-0.1 c-0.2,-1.2 -0.6000000000000001,-4.3 -5.7,-4.3 c-5,0 -5.9,4.4 -6,4.8 c0,0.2 -0.1,1.4 0,4.1 c0,1.5 0.5,2.7 1.4,3.5 c2.5,2.3 7.4,2 7.5,2 l0,0.1 l0,0 c0.7000000000000001,0.1 2,0.4 2,1.6 c0,0.6000000000000001 -0.2,1.1 -0.5,1.4 c-0.5,0.5 -1.1,0.5 -1.2,0.4 l-12.7,-0.1 L43.08695602416992,48.4217399597168 l-6.3,-0.1 c0,0 -0.6000000000000001,0 -1.1,-0.4 c-0.4,-0.30000000000000004 -0.5,-0.9 -0.5,-1.5 c0.1,-1.2 1.4,-1.5 2.1,-1.4 l3.8,0 l-3.5,-7.2 L29.086956024169922,54.7217399597168 l-0.30000000000000004,0 c0,0 -0.9,0 -4,0 c-0.9,0 -1.6,-0.30000000000000004 -2.1,-0.9 c-0.8,-1.1 -0.30000000000000004,-2.9 -0.30000000000000004,-2.9 c0,-0.1 2.2,-8.5 3,-12.2 c0.2,-0.9 0.1,-1 0.1,-1.1 c0,0 -0.1,0 -0.2,0 c-0.1,0 -0.2,0 -0.30000000000000004,0 c-0.30000000000000004,0.2 -0.6000000000000001,1 -0.6000000000000001,1.3 c-0.1,0.5 -2.4,10.5 -3.7,13 c-0.5,0.9 -1.1,1.1 -1.5,1.1 c-0.6000000000000001,0 -1.2,-0.30000000000000004 -1.5,-0.9 c-0.5,-0.8 -0.8,-1.7000000000000002 -0.8,-1.8 c0,-0.1 -2.1,-7.2 -3,-11.7 c-0.2,-0.9 -0.5,-1.5 -0.6000000000000001,-1.6 c-0.1,0 -0.2,0 -0.6000000000000001,0.2 c-0.5,0.2 -0.1,1.2 -0.1,1.2 l0,0 c0,0.1 2.7,9.6 3.5,12.3 c0.30000000000000004,1.1 0.30000000000000004,2.1 -0.1,2.8 c-0.5,0.8 -1.2,1 -1.3,1 l-0.1,0 L9.586956024169922,54.321739959716794 z" id="svg_5"/>
			</g>
		</g>
		<g id="svg_6">
			<path class="st0" d="M63.88695602416992,17.321739959716794 c-0.2,0.30000000000000004 -0.5,0.5 -0.7000000000000001,0.8 c0,0 -0.1,0 -0.1,0.1 c0,0 -0.1,0 -0.1,0.1 c0,0 0,0 -0.1,0.1 c0,0 -0.1,0.1 -0.1,0.1 L60.48695602416993,20.521739959716797 c-0.2,0.2 -0.4,0.4 -0.5,0.6000000000000001 c-0.1,0.2 -0.2,0.5 -0.2,0.7000000000000001 l3.6,0 c0.2,0 0.4,0.1 0.5,0.2 c0.1,0.1 0.2,0.30000000000000004 0.2,0.4 c0,0.2 -0.1,0.30000000000000004 -0.2,0.4 c-0.1,0.1 -0.30000000000000004,0.2 -0.5,0.2 l-4.9,0 l0,-0.6000000000000001 c0,-0.6000000000000001 0.1,-1.1 0.2,-1.6 c0.2,-0.5 0.5,-0.9 0.9,-1.3 l2.3,-2.1 c0,0 0,0 0.1,-0.1 c0,0 0.1,-0.1 0.2,-0.1 c0,0 0,0 0.1,-0.1 c0,0 0,0 0.1,0 c0.2,-0.1 0.30000000000000004,-0.30000000000000004 0.4,-0.4 c0.1,-0.1 0.2,-0.30000000000000004 0.2,-0.5 l0,-2.4 c0,-0.5 -0.2,-1 -0.5,-1.3 c-0.4,-0.4 -0.8,-0.5 -1.3,-0.6000000000000001 c-0.5,0 -0.9,0.2 -1.3,0.5 c-0.4,0.4 -0.6000000000000001,0.8 -0.6000000000000001,1.3 l0,1.1 c0,0.2 -0.1,0.4 -0.2,0.5 c-0.1,0.1 -0.30000000000000004,0.2 -0.4,0.2 c-0.2,0 -0.30000000000000004,-0.1 -0.4,-0.2 c-0.1,-0.1 -0.2,-0.30000000000000004 -0.2,-0.5 l0,-1.1 c0,-0.9 0.30000000000000004,-1.6 0.9,-2.2 c0.6000000000000001,-0.6000000000000001 1.3,-0.9 2.2,-0.9 c0.9,0 1.6,0.30000000000000004 2.2,0.9 c0.6000000000000001,0.6000000000000001 0.9,1.3 0.9,2.2 l0,2.4 C64.18695602416992,16.7217399597168 64.08695602416992,17.021739959716797 63.88695602416992,17.321739959716794 zM63.58695602416992,13.7217399597168 c0,-0.7000000000000001 -0.2,-1.3 -0.8,-1.8 c-0.5,-0.5 -1.1,-0.8 -1.8,-0.8 c-0.7000000000000001,0 -1.3,0.2 -1.8,0.7000000000000001 c-0.5,0.5 -0.8,1.1 -0.8,1.8 l0,1.1 c0,0 0,0.1 0,0.1 c0,0 0,0 0.1,0 c0.1,0 0.1,0 0.1,0 c0,0 0,-0.1 0,-0.1 l0,-1.1 c0,-0.6000000000000001 0.2,-1.2 0.7000000000000001,-1.7000000000000002 c0.5,-0.5 1,-0.7000000000000001 1.7000000000000002,-0.7000000000000001 c0.6000000000000001,0 1.2,0.2 1.7000000000000002,0.7000000000000001 c0.5,0.5 0.7000000000000001,1 0.7000000000000001,1.7000000000000002 l0,2.4 c0,0.30000000000000004 -0.1,0.5 -0.30000000000000004,0.7000000000000001 c-0.2,0.2 -0.4,0.4 -0.6000000000000001,0.6000000000000001 c0,0 0,0 0,0 c0,0 0,0 0,0 c0,0 0,0 -0.1,0 c0,0 0,0 0,0 c0,0 0,0 -0.1,0.1 c0,0 0,0 -0.1,0.1 l-2.3,2.1 c-0.4,0.30000000000000004 -0.6000000000000001,0.7000000000000001 -0.8,1.1 c-0.1,0.4 -0.2,0.9 -0.2,1.4 c0,0 0,0.1 0,0.1 c0,0 0,0 0.1,0.1 c0,0 0,0 0,0 l4.3,0 c0,0 0.1,0 0.1,0 c0,0 0,-0.1 0,-0.1 c0,-0.1 0,-0.1 0,-0.1 c0,0 0,0 -0.1,0 l-4.2,0 c0,-0.4 0.1,-0.8 0.2,-1.2 c0.1,-0.4 0.30000000000000004,-0.7000000000000001 0.7000000000000001,-1 l2.3,-2.1 c0,0 0.1,-0.1 0.1,-0.1 c0,0 0.1,0 0.1,-0.1 c0,0 0,0 0,0 c0,0 0,0 0,0 c0,0 0.1,0 0.1,-0.1 c0,0 0.1,-0.1 0.1,-0.1 c0.2,-0.2 0.4,-0.4 0.6000000000000001,-0.6000000000000001 c0.2,-0.2 0.30000000000000004,-0.5 0.30000000000000004,-0.8 L63.58695602416992,13.7217399597168 z" id="svg_7"/>
			<path class="st0" d="M70.08695602416992,22.2217399597168 c-0.6000000000000001,0.6000000000000001 -1.3,0.9 -2.2,0.9 c-0.8,0 -1.6,-0.30000000000000004 -2.2,-0.9 c-0.6000000000000001,-0.6000000000000001 -0.9,-1.3 -0.9,-2.2 l0,-6.1 c0,-0.8 0.30000000000000004,-1.6 0.9,-2.2 c0.6000000000000001,-0.6000000000000001 1.3,-0.9 2.2,-0.9 c0.9,0 1.6,0.30000000000000004 2.2,0.9 c0.6000000000000001,0.6000000000000001 0.9,1.3 0.9,2.2 l0,6.1 C70.98695602416993,20.921739959716795 70.68695602416992,21.6217399597168 70.08695602416992,22.2217399597168 zM70.38695602416992,13.821739959716794 c0,-0.7000000000000001 -0.2,-1.3 -0.8,-1.8 c-0.5,-0.5 -1.1,-0.8 -1.8,-0.8 c-0.7000000000000001,0 -1.3,0.2 -1.8,0.8 c-0.5,0.5 -0.8,1.1 -0.8,1.8 l0,6.1 c0,0.7000000000000001 0.2,1.3 0.8,1.8 c0.5,0.5 1.1,0.8 1.8,0.8 c0.7000000000000001,0 1.3,-0.2 1.8,-0.8 c0.5,-0.5 0.8,-1.1 0.8,-1.8 L70.38695602416992,13.821739959716794 zM69.38695602416992,21.521739959716797 c-0.5,0.5 -1,0.7000000000000001 -1.7000000000000002,0.7000000000000001 c-0.6000000000000001,0 -1.2,-0.2 -1.6,-0.7000000000000001 c-0.5,-0.5 -0.7000000000000001,-1 -0.7000000000000001,-1.7000000000000002 l0,-6.1 c0,-0.6000000000000001 0.2,-1.2 0.7000000000000001,-1.7000000000000002 c0.5,-0.5 1,-0.7000000000000001 1.7000000000000002,-0.7000000000000001 c0.6000000000000001,0 1.2,0.2 1.7000000000000002,0.7000000000000001 s0.7000000000000001,1 0.7000000000000001,1.7000000000000002 l0,6.1 C70.08695602416992,20.521739959716797 69.88695602416992,21.1217399597168 69.38695602416992,21.521739959716797 zM69.78695602416992,13.921739959716795 c0,-0.5 -0.2,-0.9 -0.5,-1.3 c-0.4,-0.4 -0.8,-0.6000000000000001 -1.3,-0.6000000000000001 c-0.5,0 -0.9,0.2 -1.3,0.5 c-0.4,0.4 -0.6000000000000001,0.8 -0.6000000000000001,1.3 l0,6.1 c0,0.5 0.2,0.9 0.5,1.3 c0.4,0.4 0.8,0.6000000000000001 1.3,0.6000000000000001 c0.5,0 1,-0.2 1.3,-0.5 c0.4,-0.4 0.5,-0.8 0.6000000000000001,-1.3 L69.78695602416992,13.921739959716795 z" id="svg_8"/>
			<path class="st0" d="M73.78695602416992,23.021739959716797 c-0.1,0.1 -0.30000000000000004,0.2 -0.4,0.2 c-0.2,0 -0.30000000000000004,-0.1 -0.4,-0.2 c-0.1,-0.1 -0.2,-0.30000000000000004 -0.2,-0.5 l0.1,-10.4 l-0.7000000000000001,0 c-0.2,0 -0.4,-0.1 -0.5,-0.2 c-0.1,-0.1 -0.2,-0.30000000000000004 -0.2,-0.4 c0,-0.2 0.1,-0.30000000000000004 0.2,-0.4 c0.1,-0.1 0.30000000000000004,-0.2 0.5,-0.2 l1.9,0 L73.98695602416993,22.521739959716797 C73.98695602416993,22.7217399597168 73.98695602416993,22.921739959716795 73.78695602416992,23.021739959716797 zM73.48695602416993,11.321739959716798 C73.48695602416993,11.321739959716798 73.48695602416993,11.321739959716798 73.48695602416993,11.321739959716798 c-0.1,-0.1 -0.1,-0.1 -0.1,-0.1 l-1.3,0 c0,0 -0.1,0 -0.1,0 c0,0 0,0 0,0.1 c0,0.1 0,0.1 0,0.1 c0,0 0.1,0 0.1,0 l1.2,0 L73.08695602416992,22.421739959716795 c0,0 0,0.1 0,0.1 c0,0 0,0 0.1,0 c0.1,0 0.1,0 0.1,0 c0,0 0,-0.1 0,-0.1 L73.48695602416993,11.321739959716798 z" id="svg_9"/>
			<path class="st0" d="M79.98695602416993,22.321739959716794 c-0.6000000000000001,0.6000000000000001 -1.3,0.9 -2.2,0.9 c-0.8,0 -1.6,-0.30000000000000004 -2.2,-0.9 c-0.6000000000000001,-0.6000000000000001 -0.9,-1.3 -0.9,-2.2 l0,-2.5 c0,-0.5 0.1,-1 0.4,-1.5 c0.30000000000000004,-0.5 0.6000000000000001,-0.8 1,-1.1 c-0.2,-0.2 -0.4,-0.5 -0.5,-0.8 c-0.1,-0.30000000000000004 -0.2,-0.6000000000000001 -0.2,-0.9 c0,-0.7000000000000001 0.2,-1.2 0.7000000000000001,-1.7000000000000002 c0.5,-0.5 1.1,-0.7000000000000001 1.7000000000000002,-0.7000000000000001 c0.7000000000000001,0 1.2,0.2 1.7000000000000002,0.7000000000000001 c0.5,0.5 0.7000000000000001,1.1 0.7000000000000001,1.7000000000000002 c0,0.30000000000000004 -0.1,0.6000000000000001 -0.2,0.9 c-0.1,0.30000000000000004 -0.30000000000000004,0.5 -0.5,0.8 c0.4,0.30000000000000004 0.7000000000000001,0.6000000000000001 1,1.1 c0.2,0.5 0.4,1 0.4,1.5 l0,2.5 C80.88695602416992,21.021739959716797 80.58695602416992,21.7217399597168 79.98695602416993,22.321739959716794 zM80.28695602416992,17.421739959716795 c0,-0.6000000000000001 -0.2,-1.1 -0.5,-1.6 c-0.4,-0.5 -0.8,-0.8 -1.4,-0.9 c0.4,-0.1 0.6000000000000001,-0.4 0.9,-0.7000000000000001 c0.2,-0.30000000000000004 0.4,-0.7000000000000001 0.4,-1.1 c0,-0.5 -0.2,-1 -0.6000000000000001,-1.4 c-0.4,-0.4 -0.8,-0.6000000000000001 -1.4,-0.6000000000000001 c-0.5,0 -1,0.2 -1.3,0.6000000000000001 c-0.4,0.4 -0.6000000000000001,0.8 -0.6000000000000001,1.3 c0,0.4 0.1,0.8 0.30000000000000004,1.1 c0.2,0.30000000000000004 0.5,0.6000000000000001 0.9,0.7000000000000001 c-0.5,0.1 -1,0.5 -1.4,0.9 c-0.4,0.5 -0.6000000000000001,1 -0.6000000000000001,1.6 l0,2.5 c0,0.7000000000000001 0.2,1.3 0.8,1.8 c0.5,0.5 1.1,0.8 1.8,0.8 c0.7000000000000001,0 1.3,-0.2 1.8,-0.8 c0.5,-0.5 0.8,-1.1 0.8,-1.8 L80.28695602416992,17.421739959716795 zM79.28695602416992,21.6217399597168 c-0.5,0.5 -1,0.7000000000000001 -1.7000000000000002,0.7000000000000001 c-0.6000000000000001,0 -1.2,-0.2 -1.6,-0.7000000000000001 c-0.5,-0.5 -0.7000000000000001,-1 -0.7000000000000001,-1.7000000000000002 l0,-2.5 c0,-0.6000000000000001 0.2,-1.2 0.7000000000000001,-1.7000000000000002 c0.5,-0.5 1,-0.7000000000000001 1.7000000000000002,-0.7000000000000001 c0.6000000000000001,0 1.2,0.2 1.7000000000000002,0.7000000000000001 c0.5,0.5 0.7000000000000001,1 0.7000000000000001,1.7000000000000002 l0,2.5 C79.98695602416993,20.6217399597168 79.78695602416992,21.1217399597168 79.28695602416992,21.6217399597168 zM78.88695602416992,14.321739959716794 c-0.30000000000000004,0.30000000000000004 -0.7000000000000001,0.5 -1.2,0.5 c-0.4,0 -0.8,-0.2 -1.2,-0.5 c-0.30000000000000004,-0.30000000000000004 -0.5,-0.7000000000000001 -0.5,-1.2 c0,-0.5 0.2,-0.9 0.5,-1.2 s0.7000000000000001,-0.5 1.2,-0.5 c0.5,0 0.9,0.2 1.2,0.5 c0.30000000000000004,0.30000000000000004 0.5,0.7000000000000001 0.5,1.2 C79.38695602416992,13.621739959716798 79.18695602416992,14.021739959716797 78.88695602416992,14.321739959716794 zM79.68695602416992,17.6217399597168 c0,-0.5 -0.2,-0.9 -0.5,-1.3 c-0.4,-0.4 -0.8,-0.6000000000000001 -1.3,-0.6000000000000001 c-0.5,0 -0.9,0.2 -1.3,0.5 c-0.4,0.4 -0.6000000000000001,0.8 -0.6000000000000001,1.3 l0,2.5 c0,0.5 0.2,0.9 0.5,1.3 c0.4,0.4 0.8,0.6000000000000001 1.3,0.6000000000000001 c0.5,0 1,-0.2 1.3,-0.5 c0.4,-0.4 0.5,-0.8 0.6000000000000001,-1.3 L79.68695602416992,17.6217399597168 zM78.68695602416992,12.521739959716797 c-0.2,-0.2 -0.5,-0.4 -0.8,-0.4 c-0.30000000000000004,0 -0.6000000000000001,0.1 -0.8,0.30000000000000004 c-0.2,0.2 -0.30000000000000004,0.5 -0.4,0.8 s0.1,0.6000000000000001 0.30000000000000004,0.8 c0.2,0.2 0.5,0.30000000000000004 0.8,0.4 c0.30000000000000004,0 0.6000000000000001,-0.1 0.8,-0.30000000000000004 c0.2,-0.2 0.30000000000000004,-0.5 0.4,-0.8 C78.98695602416993,13.021739959716797 78.88695602416992,12.721739959716796 78.68695602416992,12.521739959716797 z" id="svg_10"/>
			<path class="st0" d="M91.28695602416992,19.521739959716797 c-0.1,0.1 -0.30000000000000004,0.2 -0.5,0.2 l-3.8,0 l0,1.6 c0,0.2 0.1,0.4 0.2,0.5 c0.1,0.1 0.30000000000000004,0.2 0.5,0.2 l2.3,0 c0.2,0 0.4,0.1 0.5,0.2 c0.1,0.1 0.2,0.30000000000000004 0.2,0.4 c0,0.2 -0.1,0.30000000000000004 -0.2,0.4 c-0.1,0.1 -0.30000000000000004,0.2 -0.5,0.2 l-2.3,0 c-0.5,0 -1,-0.2 -1.4,-0.6000000000000001 c-0.4,-0.4 -0.6000000000000001,-0.8 -0.6000000000000001,-1.4 l0,-1.6 l-0.30000000000000004,0 c-0.2,0 -0.4,-0.1 -0.5,-0.2 c-0.1,-0.1 -0.2,-0.30000000000000004 -0.2,-0.4 c0,-0.2 0.1,-0.30000000000000004 0.2,-0.4 c0.1,-0.1 0.30000000000000004,-0.2 0.5,-0.2 l0.30000000000000004,0 l0,-5.5 c0,-0.5 0.2,-1 0.6000000000000001,-1.4 c0.4,-0.4 0.8,-0.6000000000000001 1.4,-0.6000000000000001 l2.3,0 c0.2,0 0.4,0.1 0.5,0.2 c0.1,0.1 0.2,0.30000000000000004 0.2,0.4 c0,0.2 -0.1,0.30000000000000004 -0.2,0.4 c-0.1,0.1 -0.30000000000000004,0.2 -0.5,0.2 l-2.3,0 c-0.2,0 -0.4,0.1 -0.5,0.2 c-0.1,0.1 -0.2,0.30000000000000004 -0.2,0.5 l0,5.5 l3.8,0 c0.2,0 0.4,0.1 0.5,0.2 c0.1,0.1 0.2,0.30000000000000004 0.2,0.4 C91.48695602416993,19.2217399597168 91.38695602416992,19.421739959716795 91.28695602416992,19.521739959716797 zM90.68695602416992,18.821739959716794 C90.68695602416992,18.821739959716794 90.68695602416992,18.821739959716794 90.68695602416992,18.821739959716794 C90.68695602416992,18.821739959716794 90.68695602416992,18.821739959716794 90.68695602416992,18.821739959716794 l-4.4,-0.1 l0,-6 c0,-0.30000000000000004 0.1,-0.6000000000000001 0.4,-0.9 c0.2,-0.2 0.5,-0.30000000000000004 0.9,-0.30000000000000004 l2.3,0 c0,0 0,0 0,0 c0,0 0,0 0.1,0 c0,0 0,0 0,-0.1 c0,-0.1 0,-0.1 0,-0.1 s0,0 -0.1,0 c0,0 0,0 0,0 l-2.3,0 c-0.4,0 -0.7000000000000001,0.1 -1,0.4 c-0.30000000000000004,0.30000000000000004 -0.4,0.6000000000000001 -0.4,1 l0,6 l-0.8,0 c0,0 -0.1,0 -0.1,0 c0,0 0,0 0,0.1 c0,0.1 0,0.1 0,0.1 c0,0 0,0 0.1,0 l0.8,0 l0,2.1 c0,0.4 0.1,0.7000000000000001 0.4,1 c0.30000000000000004,0.30000000000000004 0.6000000000000001,0.4 1,0.4 l2.3,0 c0,0 0,0 0,0 c0,0 0,0 0.1,0 c0,0 0,-0.1 0,-0.1 c0,0 0,-0.1 0,-0.1 c0,0 0,0 -0.1,0 c0,0 0,0 0,0 l-2.3,0 c-0.30000000000000004,0 -0.6000000000000001,-0.1 -0.9,-0.4 c-0.2,-0.2 -0.4,-0.5 -0.4,-0.9 l0,-2.1 l4.3,0 c0,0 0,0 0,0 c0,0 0,0 0.1,0 C90.78695602416992,19.021739959716797 90.78695602416992,18.921739959716795 90.68695602416992,18.821739959716794 C90.78695602416992,18.821739959716794 90.78695602416992,18.821739959716794 90.68695602416992,18.821739959716794 z" id="svg_11"/>
			<path class="st0" d="M99.48695602416993,23.2217399597168 c-0.1,0.1 -0.30000000000000004,0.2 -0.4,0.2 s-0.30000000000000004,-0.1 -0.4,-0.2 c-0.1,-0.1 -0.2,-0.30000000000000004 -0.2,-0.5 l0.1,-10.4 c-0.5,0 -1,0.2 -1.3,0.5 c-0.4,0.4 -0.5,0.8 -0.6000000000000001,1.3 l0,5 c0,0.2 -0.1,0.4 -0.2,0.5 c-0.1,0.1 -0.30000000000000004,0.2 -0.4,0.2 c0,0 0,0 0,0 c0,0 0,0 0,0 c-0.2,0 -0.30000000000000004,-0.1 -0.4,-0.2 c-0.1,-0.1 -0.2,-0.30000000000000004 -0.2,-0.5 l0,-5 c0,-0.5 -0.2,-1 -0.5,-1.3 c-0.4,-0.4 -0.8,-0.5 -1.3,-0.5 l-0.1,10.4 c0,0.2 -0.1,0.4 -0.2,0.5 c-0.1,0.1 -0.30000000000000004,0.2 -0.4,0.2 c-0.2,0 -0.30000000000000004,-0.1 -0.4,-0.2 c-0.1,-0.1 -0.2,-0.30000000000000004 -0.2,-0.5 l0.1,-11.7 l1.3,0 c0.5,0 1,0.1 1.4,0.30000000000000004 c0.4,0.2 0.8,0.5 1.1,0.9 c0.30000000000000004,-0.4 0.6000000000000001,-0.7000000000000001 1.1,-0.9 c0.4,-0.2 0.9,-0.30000000000000004 1.4,-0.30000000000000004 l1.3,0 l-0.1,11.7 C99.68695602416992,22.921739959716795 99.58695602416992,23.1217399597168 99.48695602416993,23.2217399597168 zM99.08695602416992,11.521739959716797 C99.08695602416992,11.421739959716795 99.08695602416992,11.421739959716795 99.08695602416992,11.521739959716797 C98.98695602416993,11.421739959716795 98.98695602416993,11.421739959716795 99.08695602416992,11.521739959716797 c-0.1,-0.1 -0.1,-0.1 -0.1,-0.1 c0,0 0,0 0,0 l-0.7000000000000001,0 c-0.6000000000000001,0 -1.1,0.2 -1.5,0.5 c-0.5,0.30000000000000004 -0.8,0.8 -0.9,1.3 c-0.2,-0.5 -0.5,-1 -0.9,-1.3 c-0.4,-0.30000000000000004 -1,-0.5 -1.5,-0.5 l-0.7000000000000001,0 c0,0 -0.1,0 -0.1,0 c0,0 0,0.1 0,0.1 l-0.1,11 c0,0 0,0.1 0,0.1 c0,0 0,0 0.1,0 c0.1,0 0.1,0 0.1,0 c0,0 0,-0.1 0,-0.1 l0.1,-10.9 l0.5,0 c0.6000000000000001,0 1.2,0.2 1.7000000000000002,0.7000000000000001 c0.5,0.5 0.7000000000000001,1 0.7000000000000001,1.7000000000000002 l0,5 c0,0 0,0.1 0,0.1 s0,0 0.1,0 c0.1,0 0.1,0 0.1,0 c0,0 0,-0.1 0,-0.1 l0,-5 c0,-0.6000000000000001 0.2,-1.2 0.7000000000000001,-1.6 c0.5,-0.4 1,-0.7000000000000001 1.7000000000000002,-0.7000000000000001 l0.5,0 L98.68695602416992,22.521739959716797 c0,0 0,0.1 0,0.1 c0,0 0,0 0.1,0 c0.1,0 0.1,0 0.1,0 c0,0 0,-0.1 0,-0.1 L99.08695602416992,11.521739959716797 z" id="svg_12"/>
			<path class="st0" d="M106.88695602416993,19.6217399597168 c-0.1,0.1 -0.30000000000000004,0.2 -0.5,0.2 l-3.8,0 l0,1.6 c0,0.2 0.1,0.4 0.2,0.5 c0.1,0.1 0.30000000000000004,0.2 0.5,0.2 l2.4,0 c0.2,0 0.4,0.1 0.5,0.2 c0.1,0.1 0.2,0.30000000000000004 0.2,0.4 c0,0.2 -0.1,0.30000000000000004 -0.2,0.4 c-0.1,0.1 -0.30000000000000004,0.2 -0.5,0.2 l-2.4,0 c-0.5,0 -1,-0.2 -1.4,-0.6000000000000001 c-0.4,-0.4 -0.6000000000000001,-0.8 -0.6000000000000001,-1.4 l0,-1.6 l-0.30000000000000004,0 c-0.2,0 -0.4,-0.1 -0.5,-0.2 c-0.1,-0.1 -0.2,-0.30000000000000004 -0.2,-0.4 c0,-0.2 0.1,-0.30000000000000004 0.2,-0.4 c0.1,-0.1 0.30000000000000004,-0.2 0.5,-0.2 l0.30000000000000004,0 l0,-5.5 c0,-0.5 0.2,-1 0.6000000000000001,-1.4 c0.4,-0.4 0.8,-0.6000000000000001 1.4,-0.6000000000000001 l2.4,0 c0.2,0 0.4,0.1 0.5,0.2 c0.1,0.1 0.2,0.30000000000000004 0.2,0.4 c0,0.2 -0.1,0.30000000000000004 -0.2,0.4 c-0.1,0.1 -0.30000000000000004,0.2 -0.5,0.2 l-2.4,0 c-0.2,0 -0.4,0.1 -0.5,0.2 c-0.1,0.1 -0.2,0.30000000000000004 -0.2,0.5 l0,5.5 l3.8,0 c0.2,0 0.4,0.1 0.5,0.2 c0.1,0.1 0.2,0.30000000000000004 0.2,0.4 C107.08695602416992,19.321739959716794 106.98695602416993,19.521739959716797 106.88695602416993,19.6217399597168 zM106.28695602416991,18.921739959716795 C106.28695602416991,18.921739959716795 106.28695602416991,18.921739959716795 106.28695602416991,18.921739959716795 C106.28695602416991,18.921739959716795 106.18695602416992,18.921739959716795 106.28695602416991,18.921739959716795 l-4.4,-0.1 l0,-6 c0,-0.30000000000000004 0.1,-0.6000000000000001 0.4,-0.9 c0.2,-0.2 0.5,-0.30000000000000004 0.9,-0.30000000000000004 l2.3,0 c0,0 0,0 0,0 c0,0 0,0 0.1,0 c0,0 0,0 0,-0.1 c0,-0.1 0,-0.1 0,-0.1 c0,0 0,0 -0.1,0 c0,0 0,0 0,0 l-2.3,0 c-0.4,0 -0.7000000000000001,0.1 -1,0.4 c-0.30000000000000004,0.30000000000000004 -0.4,0.6000000000000001 -0.4,1 l0,6 l-0.8,0 c0,0 -0.1,0 -0.1,0 c0,0 0,0 0,0.1 c0,0.1 0,0.1 0,0.1 c0,0 0,0 0.1,0 l0.8,0 l0,2.1 c0,0.4 0.1,0.7000000000000001 0.4,1 c0.30000000000000004,0.30000000000000004 0.6000000000000001,0.4 1,0.4 l2.3,0 c0,0 0,0 0,0 c0,0 0,0 0.1,0 c0,0 0,-0.1 0,-0.1 c0,0 0,-0.1 0,-0.1 c0,0 0,0 -0.1,0 c0,0 0,0 0,0 l-2.3,0 c-0.30000000000000004,0 -0.6000000000000001,-0.1 -0.9,-0.4 c-0.2,-0.2 -0.4,-0.5 -0.4,-0.9 l0,-2.1 l4.3,0 c0,0 0,0 0,0 c0,0 0,0 0.1,0 C106.28695602416991,19.1217399597168 106.28695602416991,19.021739959716797 106.28695602416991,18.921739959716795 C106.28695602416991,18.921739959716795 106.28695602416991,18.921739959716795 106.28695602416991,18.921739959716795 z" id="svg_13"/>
			<path class="st0" d="M114.68695602416992,23.321739959716794 c-0.1,0.1 -0.30000000000000004,0.2 -0.4,0.2 c0,0 0,0 0,0 c0,0 0,0 0,0 c-0.2,0 -0.30000000000000004,-0.1 -0.4,-0.2 c-0.1,-0.1 -0.2,-0.30000000000000004 -0.2,-0.5 l0,-3 l-3.7,0 l0,3 c0,0.2 -0.1,0.4 -0.2,0.5 c-0.1,0.1 -0.30000000000000004,0.2 -0.4,0.2 c-0.2,0 -0.30000000000000004,-0.1 -0.4,-0.2 c-0.1,-0.1 -0.2,-0.30000000000000004 -0.2,-0.5 l0,-3 l-0.30000000000000004,0 c-0.2,0 -0.4,-0.1 -0.5,-0.2 c-0.1,-0.1 -0.2,-0.30000000000000004 -0.2,-0.4 c0,0 0,0 0,0 c0,0 0,0 0,0 c0,-0.2 0.1,-0.30000000000000004 0.2,-0.4 c0.1,-0.1 0.30000000000000004,-0.2 0.5,-0.2 l0.30000000000000004,0 l0,-4.4 c0,-0.8 0.30000000000000004,-1.6 0.9,-2.2 c0.6000000000000001,-0.6000000000000001 1.3,-0.9 2.2,-0.9 c0.8,0 1.6,0.30000000000000004 2.2,0.9 c0.6000000000000001,0.6000000000000001 0.9,1.3 0.9,2.2 l-0.1,8.6 C114.88695602416993,23.021739959716797 114.78695602416991,23.2217399597168 114.68695602416992,23.321739959716794 zM114.18695602416992,14.121739959716798 c0,-0.7000000000000001 -0.2,-1.3 -0.7000000000000001,-1.8 c-0.5,-0.5 -1.1,-0.8 -1.8,-0.8 c-0.7000000000000001,0 -1.3,0.2 -1.8,0.7000000000000001 c-0.5,0.5 -0.8,1.1 -0.8,1.8 l0,4.9 l-0.8,0 c0,0 0,0 0,0 c0,0 0,0 -0.1,0 c0,0 0,0 0,0.1 c0,0 0,0.1 0,0.1 c0,0 0,0 0.1,0 c0,0 0,0 0,0 l0.8,0 l0,3.5 c0,0 0,0 0,0 c0,0 0,0 0,0.1 s0,0 0.1,0 c0,0 0.1,0 0.1,0 c0,0 0,0 0,-0.1 c0,0 0,0 0,0 l0,-3.5 l4.7,0 l0,3.5 c0,0 0,0 0,0 c0,0 0,0 0,0.1 c0,0 0,0 0.1,0 c0,0 0.1,0 0.1,0 c0,0 0,0 0,-0.1 c0,0 0,0 0,0 L114.18695602416992,14.121739959716798 zM109.28695602416991,19.021739959716797 l0,-4.9 c0,-0.6000000000000001 0.2,-1.2 0.7000000000000001,-1.7000000000000002 c0.5,-0.5 1,-0.7000000000000001 1.7000000000000002,-0.7000000000000001 c0.6000000000000001,0 1.2,0.2 1.7000000000000002,0.7000000000000001 c0.5,0.5 0.7000000000000001,1 0.7000000000000001,1.7000000000000002 l0,4.9 L109.28695602416991,19.021739959716797 zM113.68695602416992,14.2217399597168 c0,-0.5 -0.2,-0.9 -0.5,-1.3 c-0.4,-0.4 -0.8,-0.5 -1.3,-0.6000000000000001 c-0.5,0 -0.9,0.2 -1.3,0.5 s-0.5,0.8 -0.6000000000000001,1.3 l0,4.4 l3.7,0 L113.68695602416992,14.2217399597168 z" id="svg_14"/>
		</g>
		<g id="svg_15">
			<g id="svg_16">
				<path class="st1" d="M65.58695602416992,27.421739959716795 C65.58695602416992,27.521739959716797 65.48695602416993,27.521739959716797 65.38695602416992,27.521739959716797 l-0.8,0 l0,5.1 c0,0.1 0,0.2 -0.1,0.2 c-0.1,0.1 -0.1,0.1 -0.2,0.1 c0,0 0,0 0,0 s0,0 0,0 c-0.1,0 -0.1,0 -0.2,-0.1 c-0.1,-0.1 -0.1,-0.1 -0.1,-0.2 l0,-5.1 L63.08695602416992,27.521739959716797 c-0.1,0 -0.2,0 -0.2,-0.1 c-0.1,-0.1 -0.1,-0.1 -0.1,-0.2 c0,-0.1 0,-0.1 0.1,-0.2 c0.1,-0.1 0.1,-0.1 0.2,-0.1 l2.3,0 c0.1,0 0.2,0 0.2,0.1 c0.1,0.1 0.1,0.1 0.1,0.2 C65.68695602416992,27.321739959716794 65.68695602416992,27.421739959716795 65.58695602416992,27.421739959716795 zM65.28695602416992,27.1217399597168 C65.28695602416992,27.1217399597168 65.28695602416992,27.1217399597168 65.28695602416992,27.1217399597168 l-2.3,0 c0,0 0,0 0,0 c0,0 0,0 0,0.1 c0,0 0,0 0,0 c0,0 0,0 0,0 l1.1,0 l0,5.4 c0,0 0,0 0,0 c0,0 0,0 0.1,0 c0,0 0,0 0,0 c0,0 0,0 0,0 l0,-5.4 l1.1,0 c0,0 0,0 0,0 C65.38695602416992,27.2217399597168 65.38695602416992,27.2217399597168 65.28695602416992,27.1217399597168 C65.38695602416992,27.1217399597168 65.38695602416992,27.1217399597168 65.28695602416992,27.1217399597168 z" id="svg_17"/>
				<path class="st1" d="M69.18695602416992,31.1217399597168 c-0.1,0.1 -0.1,0.1 -0.2,0.1 l-1.9,0 l0,0.8 c0,0.1 0,0.2 0.1,0.2 c0.1,0.1 0.1,0.1 0.2,0.1 l1.2,0 c0.1,0 0.2,0 0.2,0.1 c0.1,0.1 0.1,0.1 0.1,0.2 c0,0.1 0,0.1 -0.1,0.2 c-0.1,0.1 -0.1,0.1 -0.2,0.1 l-1.2,0 c-0.30000000000000004,0 -0.5,-0.1 -0.7000000000000001,-0.30000000000000004 c-0.2,-0.2 -0.30000000000000004,-0.4 -0.30000000000000004,-0.7000000000000001 l0,-0.8 l-0.1,0 c-0.1,0 -0.2,0 -0.2,-0.1 c-0.1,-0.1 -0.1,-0.1 -0.1,-0.2 c0,-0.1 0,-0.1 0.1,-0.2 c0.1,-0.1 0.1,-0.1 0.2,-0.1 l0.1,0 l0,-2.7 c0,-0.30000000000000004 0.1,-0.5 0.30000000000000004,-0.7000000000000001 c0.2,-0.2 0.4,-0.30000000000000004 0.7000000000000001,-0.30000000000000004 l1.2,0 c0.1,0 0.2,0 0.2,0.1 c0.1,0.1 0.1,0.1 0.1,0.2 c0,0.1 0,0.1 -0.1,0.2 C68.78695602416992,27.521739959716797 68.68695602416992,27.521739959716797 68.58695602416992,27.521739959716797 l-1.2,0 c-0.1,0 -0.2,0 -0.2,0.1 C67.08695602416992,27.7217399597168 67.08695602416992,27.821739959716794 67.08695602416992,27.921739959716795 l0,2.7 l1.9,0 c0.1,0 0.2,0 0.2,0.1 c0.1,0.1 0.1,0.1 0.1,0.2 C69.28695602416992,31.021739959716797 69.18695602416992,31.1217399597168 69.18695602416992,31.1217399597168 zM68.88695602416992,30.821739959716794 C68.88695602416992,30.821739959716794 68.88695602416992,30.821739959716794 68.88695602416992,30.821739959716794 C68.88695602416992,30.821739959716794 68.88695602416992,30.821739959716794 68.88695602416992,30.821739959716794 l-2.2,0 l0,-3 c0,-0.2 0.1,-0.30000000000000004 0.2,-0.4 c0.1,-0.1 0.30000000000000004,-0.2 0.4,-0.2 l1.2,0 c0,0 0,0 0,0 c0,0 0,0 0,0 c0,0 0,0 0,0 c0,0 0,0 0,-0.1 c0,0 0,0 0,0 c0,0 0,0 0,0 l-1.2,0 c-0.2,0 -0.4,0.1 -0.5,0.2 c-0.1,0.1 -0.2,0.30000000000000004 -0.2,0.5 l0,3 l-0.4,0 c0,0 0,0 0,0 c0,0 0,0 0,0 c0,0 0,0.1 0,0.1 c0,0 0,0 0,0 l0.4,0 l0,1 c0,0.2 0.1,0.4 0.2,0.5 c0.1,0.1 0.30000000000000004,0.2 0.5,0.2 l1.2,0 c0,0 0,0 0,0 c0,0 0,0 0,0 c0,0 0,0 0,-0.1 c0,0 0,0 0,0 c0,0 0,0 0,0 c0,0 0,0 0,0 l-1.2,0 c-0.2,0 -0.30000000000000004,-0.1 -0.4,-0.2 c-0.1,-0.1 -0.2,-0.30000000000000004 -0.2,-0.4 l0,-1 l2.1,0 c0,0 0,0 0,0 C68.88695602416992,30.921739959716795 68.88695602416992,30.921739959716795 68.88695602416992,30.821739959716794 C68.88695602416992,30.921739959716795 68.88695602416992,30.921739959716795 68.88695602416992,30.821739959716794 C68.88695602416992,30.821739959716794 68.88695602416992,30.821739959716794 68.88695602416992,30.821739959716794 z" id="svg_18"/>
				<path class="st1" d="M72.18695602416992,32.7217399597168 c0,0.1 0,0.2 -0.1,0.2 c-0.1,0.1 -0.1,0.1 -0.2,0.1 c-0.1,0 -0.1,0 -0.2,-0.1 c-0.1,-0.1 -0.1,-0.1 -0.1,-0.2 l0,-3.5 c0,-0.4 -0.1,-0.8 -0.4,-1.1 c-0.30000000000000004,-0.30000000000000004 -0.6000000000000001,-0.5 -1,-0.6000000000000001 l0,5.1 c0,0.1 0,0.2 -0.1,0.2 c-0.1,0.1 -0.1,0.1 -0.2,0.1 c0,0 0,0 0,0 c0,0 0,0 0,0 c-0.1,0 -0.1,0 -0.2,-0.1 c-0.1,-0.1 -0.1,-0.1 -0.1,-0.2 l0,-5.4 l0,-0.30000000000000004 l0.30000000000000004,0 c0.30000000000000004,0 0.6000000000000001,0.1 0.9,0.2 c0.30000000000000004,0.1 0.5,0.30000000000000004 0.7000000000000001,0.6000000000000001 l0,-0.4 c0,-0.1 0,-0.2 0.1,-0.2 c0.1,-0.1 0.1,-0.1 0.2,-0.1 c0,0 0,0 0,0 c0,0 0,0 0,0 c0.1,0 0.1,0 0.2,0.1 c0.1,0.1 0.1,0.1 0.1,0.2 L72.18695602416992,32.7217399597168 zM71.88695602416992,27.2217399597168 C71.88695602416992,27.2217399597168 71.88695602416992,27.2217399597168 71.88695602416992,27.2217399597168 C71.88695602416992,27.1217399597168 71.88695602416992,27.1217399597168 71.88695602416992,27.2217399597168 c-0.1,-0.1 -0.1,-0.1 -0.1,0 c0,0 0,0 0,0 l0,1.3 c-0.1,-0.4 -0.4,-0.7000000000000001 -0.7000000000000001,-1 c-0.4,-0.30000000000000004 -0.7000000000000001,-0.4 -1.2,-0.4 c0,0 0,0 0,0 c0,0 0,0 0,0 c0,0 0,0 0,0 l0,5.4 c0,0 0,0 0,0 c0,0 0,0 0,0 s0,0 0,0 c0,0 0,0 0,0 l0,-5.4 c0.5,0 1,0.2 1.3,0.6000000000000001 c0.4,0.4 0.5,0.8 0.5,1.3 l0,3.4 c0,0 0,0 0,0 s0,0 0.1,0 c0,0 0,0 0,0 c0,0 0,0 0,0 L71.88695602416992,27.2217399597168 z" id="svg_19"/>
				<path class="st1" d="M75.78695602416992,31.2217399597168 c-0.1,0.1 -0.1,0.1 -0.2,0.1 l-1.9,0 l0,0.8 c0,0.1 0,0.2 0.1,0.2 c0.1,0.1 0.1,0.1 0.2,0.1 l1.2,0 c0.1,0 0.2,0 0.2,0.1 c0.1,0.1 0.1,0.1 0.1,0.2 c0,0.1 0,0.1 -0.1,0.2 c-0.1,0.1 -0.1,0.1 -0.2,0.1 l-1.2,0 c-0.30000000000000004,0 -0.5,-0.1 -0.7000000000000001,-0.30000000000000004 c-0.2,-0.2 -0.30000000000000004,-0.4 -0.30000000000000004,-0.7000000000000001 l0,-0.8 l-0.1,0 c-0.1,0 -0.2,0 -0.2,-0.1 c-0.1,-0.1 -0.1,-0.1 -0.1,-0.2 c0,-0.1 0,-0.1 0.1,-0.2 c0.1,-0.1 0.1,-0.1 0.2,-0.1 l0.1,0 l0,-2.7 c0,-0.30000000000000004 0.1,-0.5 0.30000000000000004,-0.7000000000000001 c0.2,-0.2 0.4,-0.30000000000000004 0.7000000000000001,-0.30000000000000004 l1.2,0 c0.1,0 0.2,0 0.2,0.1 c0.1,0.1 0.1,0.1 0.1,0.2 c0,0.1 0,0.1 -0.1,0.2 c-0.1,0.1 -0.1,0.1 -0.2,0.1 l-1.2,0 c-0.1,0 -0.2,0 -0.2,0.1 c-0.1,0.1 -0.1,0.2 -0.1,0.2 l0,2.7 l1.9,0 c0.1,0 0.2,0 0.2,0.1 c0.1,0.1 0.1,0.1 0.1,0.2 C75.88695602416992,31.021739959716797 75.78695602416992,31.1217399597168 75.78695602416992,31.2217399597168 zM75.48695602416993,30.821739959716794 C75.48695602416993,30.821739959716794 75.48695602416993,30.821739959716794 75.48695602416993,30.821739959716794 C75.48695602416993,30.821739959716794 75.38695602416992,30.821739959716794 75.48695602416993,30.821739959716794 l-2.2,0 l0,-3 c0,-0.2 0.1,-0.30000000000000004 0.2,-0.4 c0.1,-0.1 0.30000000000000004,-0.2 0.4,-0.2 l1.2,0 c0,0 0,0 0,0 c0,0 0,0 0,0 c0,0 0,0 0,0 c0,0 0,0 0,-0.1 c0,0 0,0 0,0 c0,0 0,0 0,0 l-1.2,0 c-0.2,0 -0.4,0.1 -0.5,0.2 s-0.2,0.30000000000000004 -0.2,0.5 l0,3 l-0.4,0 c0,0 0,0 0,0 c0,0 0,0 0,0 c0,0 0,0.1 0,0.1 c0,0 0,0 0,0 l0.4,0 l0,1 c0,0.2 0.1,0.4 0.2,0.5 c0.1,0.1 0.30000000000000004,0.2 0.5,0.2 l1.2,0 c0,0 0,0 0,0 c0,0 0,0 0,0 c0,0 0,0 0,-0.1 c0,0 0,0 0,0 c0,0 0,0 0,0 c0,0 0,0 0,0 l-1.2,0 c-0.2,0 -0.30000000000000004,-0.1 -0.4,-0.2 c-0.1,-0.1 -0.2,-0.30000000000000004 -0.2,-0.4 l0,-1 l2.1,0 c0,0 0,0 0,0 C75.48695602416993,30.921739959716795 75.48695602416993,30.921739959716795 75.48695602416993,30.821739959716794 C75.48695602416993,30.921739959716795 75.48695602416993,30.921739959716795 75.48695602416993,30.821739959716794 C75.48695602416993,30.921739959716795 75.48695602416993,30.821739959716794 75.48695602416993,30.821739959716794 z" id="svg_20"/>
				<path class="st1" d="M79.38695602416992,33.0217399597168 c-0.1,0.1 -0.1,0.1 -0.2,0.1 c0,0 0,0 0,0 c0,0 0,0 0,0 c-0.1,0 -0.1,0 -0.2,-0.1 c-0.1,-0.1 -0.1,-0.1 -0.1,-0.2 l0,-0.6000000000000001 c0,-0.2 -0.1,-0.5 -0.30000000000000004,-0.6000000000000001 c-0.2,-0.2 -0.4,-0.30000000000000004 -0.6000000000000001,-0.30000000000000004 l-0.7000000000000001,0 l0,1.5 c0,0.1 0,0.2 -0.1,0.2 c-0.1,0.1 -0.1,0.1 -0.2,0.1 c0,0 0,0 0,0 c0,0 0,0 0,0 c-0.1,0 -0.1,0 -0.2,-0.1 c-0.1,-0.1 -0.1,-0.1 -0.1,-0.2 l0,-1.5 l-0.1,0 c-0.1,0 -0.2,0 -0.2,-0.1 c-0.1,-0.1 -0.1,-0.1 -0.1,-0.2 c0,0 0,0 0,0 c0,0 0,0 0,0 c0,-0.1 0,-0.1 0.1,-0.2 c0.1,-0.1 0.1,-0.1 0.2,-0.1 l0.1,0 l0,-3.7 l1.4,0 c0.4,0 0.8,0.2 1,0.4 c0.30000000000000004,0.30000000000000004 0.4,0.6000000000000001 0.4,1.1 l0,1.3 c0,0.2 -0.1,0.5 -0.2,0.7000000000000001 c-0.1,0.2 -0.30000000000000004,0.4 -0.4,0.5 c0.2,0.1 0.30000000000000004,0.30000000000000004 0.4,0.5 c0.1,0.2 0.2,0.4 0.2,0.7000000000000001 l0,0.6000000000000001 C79.48695602416993,32.921739959716795 79.38695602416992,32.921739959716795 79.38695602416992,33.0217399597168 zM79.08695602416992,32.1217399597168 c0,-0.30000000000000004 -0.1,-0.5 -0.2,-0.7000000000000001 c-0.2,-0.2 -0.4,-0.4 -0.6000000000000001,-0.5 c0.30000000000000004,-0.1 0.5,-0.2 0.6000000000000001,-0.4 c0.2,-0.2 0.30000000000000004,-0.5 0.30000000000000004,-0.7000000000000001 l0,-1.3 c0,-0.30000000000000004 -0.1,-0.6000000000000001 -0.4,-0.9 c-0.2,-0.2 -0.5,-0.4 -0.9,-0.4 l-1.1,0 c0,0 0,0 0,0 c0,0 0,0 0,0 l0,3.6 l-0.4,0 c0,0 0,0 0,0 c0,0 0,0 0,0 c0,0 0,0.1 0,0.1 c0,0 0,0 0,0 l0.4,0 l0,1.7000000000000002 c0,0 0,0 0,0 c0,0 0,0 0.1,0 c0,0 0,0 0,0 c0,0 0,0 0,0 l0,-1.7000000000000002 l1,0 c0.30000000000000004,0 0.6000000000000001,0.1 0.8,0.30000000000000004 c0.2,0.2 0.30000000000000004,0.5 0.30000000000000004,0.8 l0,0.6000000000000001 c0,0 0,0 0,0 c0,0 0,0 0,0 c0,0 0,0 0,0 c0,0 0,0 0,0 L79.08695602416992,32.1217399597168 zM78.68695602416992,30.521739959716797 c-0.2,0.2 -0.5,0.30000000000000004 -0.8,0.30000000000000004 l-1,0 l0,-3.6 l1,0 c0.30000000000000004,0 0.6000000000000001,0.1 0.8,0.30000000000000004 c0.2,0.2 0.30000000000000004,0.5 0.30000000000000004,0.8 l0,1.3 C78.98695602416993,30.021739959716797 78.88695602416992,30.321739959716794 78.68695602416992,30.521739959716797 zM78.88695602416992,28.521739959716797 c0,-0.2 -0.1,-0.4 -0.2,-0.6000000000000001 c-0.2,-0.2 -0.4,-0.30000000000000004 -0.6000000000000001,-0.30000000000000004 l-0.7000000000000001,0 l0,3.1 l0.7000000000000001,0 c0.2,0 0.4,-0.1 0.6000000000000001,-0.30000000000000004 c0.2,-0.2 0.30000000000000004,-0.4 0.30000000000000004,-0.6000000000000001 L78.88695602416992,28.521739959716797 z" id="svg_21"/>
				<path class="st1" d="M80.38695602416992,33.0217399597168 c-0.1,0.1 -0.1,0.1 -0.2,0.1 c0,0 0,0 0,0 c0,0 0,0 0,0 c-0.1,0 -0.1,0 -0.2,-0.1 c-0.1,-0.1 -0.1,-0.1 -0.1,-0.2 l0,-5.4 c0,-0.1 0,-0.2 0.1,-0.2 c0.1,-0.1 0.1,-0.1 0.2,-0.1 c0,0 0,0 0,0 c0,0 0,0 0,0 c0.1,0 0.1,0 0.2,0.1 c0.1,0.1 0.1,0.1 0.1,0.2 l0,5.4 C80.48695602416993,32.921739959716795 80.48695602416993,32.921739959716795 80.38695602416992,33.0217399597168 zM80.18695602416992,27.2217399597168 C80.18695602416992,27.2217399597168 80.18695602416992,27.2217399597168 80.18695602416992,27.2217399597168 C80.18695602416992,27.2217399597168 80.18695602416992,27.2217399597168 80.18695602416992,27.2217399597168 c-0.1,-0.1 -0.1,-0.1 -0.1,0 c0,0 0,0 0,0 l0,5.4 c0,0 0,0 0,0 c0,0 0,0 0,0 c0,0 0,0 0,0 c0,0 0,0 0,0 L80.18695602416992,27.2217399597168 z" id="svg_22"/>
				<path class="st1" d="M84.08695602416992,31.2217399597168 c-0.1,0.1 -0.1,0.1 -0.2,0.1 l-1.9,0 l0,1.5 c0,0.1 0,0.2 -0.1,0.2 c-0.1,0.1 -0.1,0.1 -0.2,0.1 c-0.1,0 -0.1,0 -0.2,-0.1 c-0.1,-0.1 -0.1,-0.1 -0.1,-0.2 l0,-1.5 l-0.1,0 c-0.1,0 -0.2,0 -0.2,-0.1 c-0.1,-0.1 -0.1,-0.1 -0.1,-0.2 c0,-0.1 0,-0.1 0.1,-0.2 c0.1,-0.1 0.1,-0.1 0.2,-0.1 l0.1,0 l0,-2.7 c0,-0.30000000000000004 0.1,-0.5 0.30000000000000004,-0.7000000000000001 c0.2,-0.2 0.4,-0.30000000000000004 0.7000000000000001,-0.30000000000000004 l1.2,0 c0.1,0 0.2,0 0.2,0.1 c0.1,0.1 0.1,0.1 0.1,0.2 c0,0.1 0,0.1 -0.1,0.2 c-0.1,0.1 -0.1,0.1 -0.2,0.1 l-1.2,0 c-0.1,0 -0.2,0 -0.2,0.1 c-0.1,0.1 -0.1,0.2 -0.1,0.2 l0,2.7 l1.9,0 c0.1,0 0.2,0 0.2,0.1 c0.1,0.1 0.1,0.1 0.1,0.2 C84.18695602416992,31.1217399597168 84.18695602416992,31.2217399597168 84.08695602416992,31.2217399597168 zM83.78695602416992,30.921739959716795 C83.78695602416992,30.921739959716795 83.78695602416992,30.921739959716795 83.78695602416992,30.921739959716795 C83.78695602416992,30.921739959716795 83.78695602416992,30.921739959716795 83.78695602416992,30.921739959716795 l-2.2,0 l0,-3 c0,-0.2 0.1,-0.30000000000000004 0.2,-0.4 c0.1,-0.1 0.30000000000000004,-0.2 0.4,-0.2 l1.2,0 c0,0 0,0 0,0 c0,0 0,0 0,0 c0,0 0,0 0,0 c0,0 0,0 0,-0.1 c0,0 0,0 0,0 c0,0 0,0 0,0 l-1.2,0 c-0.2,0 -0.4,0.1 -0.5,0.2 c-0.1,0.1 -0.2,0.30000000000000004 -0.2,0.5 l0,3 l-0.4,0 c0,0 0,0 0,0 c0,0 0,0 0,0 c0,0 0,0.1 0,0.1 c0,0 0,0 0,0 l0.4,0 l0,1.7000000000000002 c0,0 0,0 0,0 s0,0 0,0 c0,0 0,0 0,0 c0,0 0,0 0,0 l0,-1.7000000000000002 l2.1,0 c0,0 0,0 0,0 C83.78695602416992,31.021739959716797 83.78695602416992,31.021739959716797 83.78695602416992,30.921739959716795 C83.78695602416992,31.021739959716797 83.78695602416992,31.021739959716797 83.78695602416992,30.921739959716795 C83.78695602416992,30.921739959716795 83.78695602416992,30.921739959716795 83.78695602416992,30.921739959716795 z" id="svg_23"/>
				<path class="st1" d="M87.68695602416992,31.321739959716794 c-0.1,0.1 -0.1,0.1 -0.2,0.1 l-1.9,0 l0,0.8 c0,0.1 0,0.2 0.1,0.2 c0.1,0.1 0.1,0.1 0.2,0.1 l1.2,0 c0.1,0 0.2,0 0.2,0.1 c0.1,0.1 0.1,0.1 0.1,0.2 c0,0.1 0,0.1 -0.1,0.2 c-0.1,0.1 -0.1,0.1 -0.2,0.1 l-1.2,0 c-0.30000000000000004,0 -0.5,-0.1 -0.7000000000000001,-0.30000000000000004 c-0.2,-0.2 -0.30000000000000004,-0.4 -0.30000000000000004,-0.7000000000000001 l0,-0.8 l-0.1,0 c-0.1,0 -0.2,0 -0.2,-0.1 c-0.1,-0.1 -0.1,-0.1 -0.1,-0.2 c0,-0.1 0,-0.1 0.1,-0.2 c0.1,-0.1 0.1,-0.1 0.2,-0.1 l0.1,0 l0,-2.7 c0,-0.30000000000000004 0.1,-0.5 0.30000000000000004,-0.7000000000000001 c0.2,-0.2 0.4,-0.30000000000000004 0.7000000000000001,-0.30000000000000004 l1.2,0 c0.1,0 0.2,0 0.2,0.1 c0.1,0.1 0.1,0.1 0.1,0.2 c0,0.1 0,0.1 -0.1,0.2 c-0.1,0.1 -0.1,0.1 -0.2,0.1 l-1.2,0 c-0.1,0 -0.2,0 -0.2,0.1 c-0.1,0.1 -0.1,0.2 -0.1,0.2 l0,2.7 l1.9,0 c0.1,0 0.2,0 0.2,0.1 c0.1,0.1 0.1,0.1 0.1,0.2 C87.78695602416992,31.1217399597168 87.78695602416992,31.2217399597168 87.68695602416992,31.321739959716794 zM87.38695602416992,30.921739959716795 C87.38695602416992,30.921739959716795 87.38695602416992,30.921739959716795 87.38695602416992,30.921739959716795 C87.38695602416992,30.921739959716795 87.38695602416992,30.921739959716795 87.38695602416992,30.921739959716795 l-2.2,0 l0,-3 c0,-0.2 0.1,-0.30000000000000004 0.2,-0.4 c0.1,-0.1 0.30000000000000004,-0.2 0.4,-0.2 l1.2,0 c0,0 0,0 0,0 c0,0 0,0 0,0 c0,0 0,0 0,0 c0,0 0,0 0,-0.1 c0,0 0,0 0,0 c0,0 0,0 0,0 l-1.2,0 c-0.2,0 -0.4,0.1 -0.5,0.2 c-0.1,0.1 -0.2,0.30000000000000004 -0.2,0.5 l0,3 l-0.4,0 c0,0 0,0 0,0 c0,0 0,0 0,0 c0,0 0,0.1 0,0.1 c0,0 0,0 0,0 l0.4,0 l0,1 c0,0.2 0.1,0.4 0.2,0.5 c0.1,0.1 0.30000000000000004,0.2 0.5,0.2 l1.2,0 c0,0 0,0 0,0 c0,0 0,0 0,0 c0,0 0,0 0,-0.1 c0,0 0,0 0,0 c0,0 0,0 0,0 c0,0 0,0 0,0 l-1.2,0 c-0.2,0 -0.30000000000000004,-0.1 -0.4,-0.2 c-0.1,-0.1 -0.2,-0.30000000000000004 -0.2,-0.4 l0,-1 l2.1,0 c0,0 0,0 0,0 C87.38695602416992,31.021739959716797 87.38695602416992,31.021739959716797 87.38695602416992,30.921739959716795 C87.38695602416992,31.021739959716797 87.38695602416992,31.021739959716797 87.38695602416992,30.921739959716795 C87.38695602416992,30.921739959716795 87.38695602416992,30.921739959716795 87.38695602416992,30.921739959716795 z" id="svg_24"/>
				<path class="st1" d="M98.18695602416992,33.1217399597168 c-0.1,0.1 -0.1,0.1 -0.2,0.1 c-0.1,0 -0.1,0 -0.2,-0.1 c-0.1,-0.1 -0.1,-0.1 -0.1,-0.2 l0,-5.1 c-0.30000000000000004,0 -0.5,0.1 -0.7000000000000001,0.30000000000000004 c-0.2,0.2 -0.30000000000000004,0.4 -0.30000000000000004,0.7000000000000001 l0,2.4 c0,0.1 0,0.2 -0.1,0.2 c-0.1,0.1 -0.1,0.1 -0.2,0.1 c0,0 0,0 0,0 c0,0 0,0 0,0 c-0.1,0 -0.1,0 -0.2,-0.1 c-0.1,-0.1 -0.1,-0.1 -0.1,-0.2 l0,-2.5 c0,-0.30000000000000004 -0.1,-0.5 -0.30000000000000004,-0.6000000000000001 c-0.2,-0.2 -0.4,-0.30000000000000004 -0.6000000000000001,-0.30000000000000004 l0,5.1 c0,0.1 0,0.2 -0.1,0.2 c-0.1,0.1 -0.1,0.1 -0.2,0.1 s-0.1,0 -0.2,-0.1 c-0.1,-0.1 -0.1,-0.1 -0.1,-0.2 l0,-5.7 l0.6000000000000001,0 c0.2,0 0.5,0.1 0.7000000000000001,0.2 c0.2,0.1 0.4,0.30000000000000004 0.5,0.4 c0.1,-0.2 0.30000000000000004,-0.30000000000000004 0.5,-0.4 c0.2,-0.1 0.4,-0.2 0.7000000000000001,-0.2 l0.6000000000000001,0 l0,5.7 C98.28695602416992,33.0217399597168 98.18695602416992,33.1217399597168 98.18695602416992,33.1217399597168 zM97.98695602416993,27.421739959716795 C97.98695602416993,27.421739959716795 97.98695602416993,27.321739959716794 97.98695602416993,27.421739959716795 C97.98695602416993,27.321739959716794 97.98695602416993,27.321739959716794 97.98695602416993,27.421739959716795 C97.88695602416992,27.321739959716794 97.88695602416992,27.321739959716794 97.98695602416993,27.421739959716795 C97.88695602416992,27.321739959716794 97.88695602416992,27.321739959716794 97.98695602416993,27.421739959716795 l-0.4,-0.1 c-0.30000000000000004,0 -0.5,0.1 -0.8,0.2 c-0.2,0.2 -0.4,0.4 -0.5,0.6000000000000001 c-0.1,-0.30000000000000004 -0.2,-0.5 -0.4,-0.6000000000000001 c-0.2,-0.2 -0.5,-0.30000000000000004 -0.8,-0.30000000000000004 l-0.30000000000000004,0 c0,0 0,0 0,0 c0,0 0,0 0,0 l0,5.4 c0,0 0,0 0,0 c0,0 0,0 0,0 c0,0 0,0 0,0 c0,0 0,0 0,0 l0,-5.4 l0.30000000000000004,0 c0.30000000000000004,0 0.6000000000000001,0.1 0.8,0.30000000000000004 c0.2,0.2 0.30000000000000004,0.5 0.30000000000000004,0.8 l0,2.5 c0,0 0,0 0,0 c0,0 0,0 0,0 c0,0 0,0 0,0 c0,0 0,0 0,0 l0,-2.5 c0,-0.30000000000000004 0.1,-0.6000000000000001 0.30000000000000004,-0.8 c0.2,-0.2 0.5,-0.30000000000000004 0.8,-0.30000000000000004 l0.30000000000000004,0 l0,5.4 c0,0 0,0 0,0 c0,0 0,0 0.1,0 c0,0 0,0 0,0 c0,0 0,0 0,0 L97.98695602416993,27.421739959716795 z" id="svg_25"/>
				<path class="st1" d="M99.18695602416992,33.1217399597168 c-0.1,0.1 -0.1,0.1 -0.2,0.1 c0,0 0,0 0,0 c0,0 0,0 0,0 c-0.1,0 -0.1,0 -0.2,-0.1 c-0.1,-0.1 -0.1,-0.1 -0.1,-0.2 l0,-5.4 c0,-0.1 0,-0.2 0.1,-0.2 c0.1,-0.1 0.1,-0.1 0.2,-0.1 c0,0 0,0 0,0 c0,0 0,0 0,0 c0.1,0 0.1,0 0.2,0.1 c0.1,0.1 0.1,0.1 0.1,0.2 l0,5.4 C99.28695602416992,33.0217399597168 99.28695602416992,33.1217399597168 99.18695602416992,33.1217399597168 zM98.98695602416993,27.421739959716795 C98.98695602416993,27.421739959716795 98.98695602416993,27.421739959716795 98.98695602416993,27.421739959716795 C98.98695602416993,27.321739959716794 98.98695602416993,27.321739959716794 98.98695602416993,27.421739959716795 c-0.1,-0.1 -0.1,-0.1 -0.1,0 c0,0 0,0 0,0 l0,5.4 c0,0 0,0 0,0 s0,0 0,0 c0,0 0,0 0,0 c0,0 0,0 0,0 L98.98695602416993,27.421739959716795 z" id="svg_26"/>
				<path class="st1" d="M103.18695602416992,33.2217399597168 c-0.1,0.1 -0.1,0.1 -0.2,0.1 c0,0 0,0 0,0 c0,0 0,0 0,0 c-0.1,0 -0.1,0 -0.2,-0.1 c-0.1,-0.1 -0.1,-0.1 -0.1,-0.2 l0,-1.5 l-1.8,0 l0,1.5 c0,0.1 0,0.2 -0.1,0.2 c-0.1,0.1 -0.1,0.1 -0.2,0.1 c-0.1,0 -0.1,0 -0.2,-0.1 c-0.1,-0.1 -0.1,-0.1 -0.1,-0.2 l0,-1.5 l-0.1,0 c-0.1,0 -0.2,0 -0.2,-0.1 c-0.1,-0.1 -0.1,-0.1 -0.1,-0.2 c0,0 0,0 0,0 c0,0 0,0 0,0 c0,-0.1 0,-0.1 0.1,-0.2 c0.1,-0.1 0.1,-0.1 0.2,-0.1 l0.1,0 l0,-2.2 c0,-0.4 0.2,-0.8 0.5,-1.1 c0.30000000000000004,-0.30000000000000004 0.7000000000000001,-0.4 1.1,-0.4 c0.4,0 0.8,0.2 1.1,0.5 c0.30000000000000004,0.30000000000000004 0.4,0.7000000000000001 0.4,1.1 l0,4.2 C103.28695602416992,33.0217399597168 103.18695602416992,33.1217399597168 103.18695602416992,33.2217399597168 zM102.98695602416993,28.6217399597168 c0,-0.30000000000000004 -0.1,-0.6000000000000001 -0.4,-0.9 c-0.2,-0.2 -0.5,-0.4 -0.9,-0.4 c-0.30000000000000004,0 -0.6000000000000001,0.1 -0.9,0.4 c-0.30000000000000004,0.2 -0.4,0.5 -0.4,0.9 l0,2.4 l-0.4,0 c0,0 0,0 0,0 c0,0 0,0 0,0 c0,0 0,0 0,0 c0,0 0,0 0,0 c0,0 0,0 0,0 c0,0 0,0 0,0 l0.4,0 l0,1.7000000000000002 c0,0 0,0 0,0 c0,0 0,0 0,0 c0,0 0,0 0,0 c0,0 0,0 0,0 c0,0 0,0 0,0 c0,0 0,0 0,0 l0,-1.7000000000000002 l2.3,0 l0,1.7000000000000002 c0,0 0,0 0,0 c0,0 0,0 0,0 c0,0 0,0 0,0 c0,0 0,0 0,0 c0,0 0,0 0,0 c0,0 0,0 0,0 L102.98695602416993,28.6217399597168 zM100.48695602416993,31.021739959716797 l0,-2.4 c0,-0.30000000000000004 0.1,-0.6000000000000001 0.30000000000000004,-0.8 c0.2,-0.2 0.5,-0.30000000000000004 0.8,-0.30000000000000004 c0.30000000000000004,0 0.6000000000000001,0.1 0.8,0.30000000000000004 c0.2,0.2 0.30000000000000004,0.5 0.30000000000000004,0.8 l0,2.4 L100.48695602416993,31.021739959716797 zM102.68695602416992,28.7217399597168 c0,-0.2 -0.1,-0.5 -0.30000000000000004,-0.6000000000000001 c-0.2,-0.2 -0.4,-0.30000000000000004 -0.6000000000000001,-0.30000000000000004 s-0.5,0.1 -0.6000000000000001,0.30000000000000004 c-0.2,0.2 -0.30000000000000004,0.4 -0.30000000000000004,0.6000000000000001 l0,2.2 l1.8,0 L102.68695602416992,28.7217399597168 z" id="svg_27"/>
				<path class="st1" d="M107.28695602416991,33.2217399597168 c-0.1,0 -0.1,0.1 -0.2,0.1 c-0.1,0 -0.1,0 -0.2,-0.1 c-0.1,-0.1 -0.1,-0.1 -0.1,-0.2 l0,-5.1 c-0.30000000000000004,0 -0.5,0.1 -0.7000000000000001,0.30000000000000004 c-0.2,0.2 -0.30000000000000004,0.4 -0.30000000000000004,0.7000000000000001 l0,2.4 c0,0.1 0,0.2 -0.1,0.2 c-0.1,0.1 -0.1,0.1 -0.2,0.1 c0,0 0,0 0,0 c0,0 0,0 0,0 c-0.1,0 -0.1,0 -0.2,-0.1 c-0.1,-0.1 -0.1,-0.1 -0.1,-0.2 l0,-2.5 c0,-0.30000000000000004 -0.1,-0.5 -0.30000000000000004,-0.6000000000000001 c-0.2,-0.2 -0.4,-0.30000000000000004 -0.6000000000000001,-0.30000000000000004 l0,5.1 c0,0.1 0,0.2 -0.1,0.2 c-0.1,0 -0.1,0.1 -0.2,0.1 c-0.1,0 -0.1,0 -0.2,-0.1 c-0.1,-0.1 -0.1,-0.1 -0.1,-0.2 l0,-5.7 l0.6000000000000001,0 c0.2,0 0.5,0.1 0.7000000000000001,0.2 c0.2,0.1 0.4,0.30000000000000004 0.5,0.4 c0.1,-0.2 0.30000000000000004,-0.30000000000000004 0.5,-0.4 c0.2,-0.1 0.4,-0.2 0.7000000000000001,-0.2 l0.6000000000000001,0 l0,5.7 C107.38695602416993,33.1217399597168 107.38695602416993,33.2217399597168 107.28695602416991,33.2217399597168 zM107.08695602416992,27.421739959716795 C107.08695602416992,27.421739959716795 107.08695602416992,27.421739959716795 107.08695602416992,27.421739959716795 C107.08695602416992,27.421739959716795 107.08695602416992,27.421739959716795 107.08695602416992,27.421739959716795 C107.08695602416992,27.421739959716795 107.08695602416992,27.421739959716795 107.08695602416992,27.421739959716795 C107.08695602416992,27.421739959716795 107.08695602416992,27.421739959716795 107.08695602416992,27.421739959716795 l-0.4,-0.1 c-0.30000000000000004,0 -0.5,0.1 -0.8,0.2 c-0.2,0.2 -0.4,0.4 -0.5,0.6000000000000001 c-0.1,-0.30000000000000004 -0.2,-0.5 -0.4,-0.6000000000000001 c-0.2,-0.2 -0.5,-0.30000000000000004 -0.8,-0.30000000000000004 l-0.30000000000000004,0 c0,0 0,0 0,0 c0,0 0,0 0,0 l0,5.4 c0,0 0,0 0,0 c0,0 0,0 0,0 c0,0 0,0 0,0 c0,0 0,0 0,0 l0,-5.4 l0.30000000000000004,0 c0.30000000000000004,0 0.6000000000000001,0.1 0.8,0.30000000000000004 s0.30000000000000004,0.5 0.30000000000000004,0.8 l0,2.5 c0,0 0,0 0,0 c0,0 0,0 0,0 c0,0 0,0 0,0 c0,0 0,0 0,0 l0,-2.5 c0,-0.30000000000000004 0.1,-0.6000000000000001 0.30000000000000004,-0.8 c0.2,-0.2 0.5,-0.30000000000000004 0.8,-0.30000000000000004 l0.30000000000000004,0 l0,5.4 c0,0 0,0 0,0 c0,0 0,0 0.1,0 c0,0 0,0 0,0 c0,0 0,0 0,0 L107.08695602416992,27.421739959716795 z" id="svg_28"/>
				<path class="st1" d="M108.38695602416993,33.2217399597168 c-0.1,0.1 -0.1,0.1 -0.2,0.1 c0,0 0,0 0,0 c0,0 0,0 0,0 c-0.1,0 -0.1,0 -0.2,-0.1 c-0.1,-0.1 -0.1,-0.1 -0.1,-0.2 l0,-5.4 c0,-0.1 0,-0.2 0.1,-0.2 c0.1,-0.1 0.1,-0.1 0.2,-0.1 c0,0 0,0 0,0 c0,0 0,0 0,0 c0.1,0 0.1,0 0.2,0.1 c0.1,0.1 0.1,0.1 0.1,0.2 l0,5.4 C108.48695602416993,33.1217399597168 108.38695602416993,33.2217399597168 108.38695602416993,33.2217399597168 zM108.18695602416992,27.521739959716797 C108.18695602416992,27.421739959716795 108.18695602416992,27.421739959716795 108.18695602416992,27.521739959716797 C108.18695602416992,27.421739959716795 108.08695602416992,27.421739959716795 108.18695602416992,27.521739959716797 c-0.1,-0.1 -0.1,-0.1 -0.1,0 c0,0 0,0 0,0 l0,5.4 c0,0 0,0 0,0 c0,0 0,0 0,0 c0,0 0,0 0,0 c0,0 0,0 0,0 L108.18695602416992,27.521739959716797 z" id="svg_29"/>
			</g>
			<polygon class="st0" points="91.08695602416992,28.021739959716797 91.68695449829102,29.22174072265625 92.98695755004883,29.421741485595703 91.98695755004883,30.321739196777344 92.28695297241211,31.62173843383789 91.08695602416992,31.021739959716797 89.88695907592773,31.62173843383789 90.18695449829102,30.321739196777344 89.28695297241211,29.421741485595703 90.48695755004883,29.22174072265625 " id="svg_30"/>
		</g>
	</g>
</g></g></svg>