<svg xmlns="http://www.w3.org/2000/svg" xmlns:xlink="http://www.w3.org/1999/xlink" enable-background="new 0 0 512 512" height="512" version="1.1" width="512" xml:space="preserve"><rect id="backgroundrect" width="100%" height="100%" x="0" y="0" fill="none" stroke="none"/><g class="currentLayer"><title>Layer 1</title><g id="svg_1" class="" fill="#ffffff" fill-opacity="1"><g id="svg_2" fill="#ffffff" fill-opacity="1"><path d="M255.3464052081108,-1.3071895837783813 C113.97140520811081,-1.3071895837783813 -0.6535947918891907,113.30181041622161 -0.6535947918891907,254.69281041622162 c0,141.375 114.625,256 256,256 s256,-114.625 256,-256 C511.3464052081108,113.30181041622161 396.7214052081108,-1.3071895837783813 255.3464052081108,-1.3071895837783813 zM255.3464052081108,446.6928104162216 c-106.031,0 -192,-85.969 -192,-192 S149.3154052081108,62.69281041622162 255.3464052081108,62.69281041622162 c106.03,0 192,85.969 192,192 S361.3774052081108,446.6928104162216 255.3464052081108,446.6928104162216 zM159.3464052081108,318.6928104162216 h64 V190.69281041622162 h-64 V318.6928104162216 zM287.3464052081108,318.6928104162216 h64 V190.69281041622162 h-64 V318.6928104162216 z" id="svg_3" fill="#ffffff" fill-opacity="1"/></g></g></g></svg>