<svg xmlns="http://www.w3.org/2000/svg" xmlns:xlink="http://www.w3.org/1999/xlink" enable-background="new 0 0 128 128" height="99.42857360839844" version="1.1" width="97.38775634765625" xml:space="preserve"><rect id="backgroundrect" width="100%" height="100%" x="0" y="0" fill="none" stroke="none"/><g class="currentLayer"><title>Layer 1</title><g id="Layer_2"/><g id="Layer_1" class="" fill="#ffffff" fill-opacity="1" ><path d="M69.98510215759278,82.93365419006348 c-1.994,-1.107 -19.021,-10.56 -19.021,-10.56 s-17.659,8.893 -19.156,9.645 c-1.497,0.7510000000000001 -5.058,-0.42500000000000004 -4.447,-3.552 c0.6080000000000001,-3.129 4.085,-20.961 4.085,-20.961 S18.439102157592774,44.27165419006348 16.507102157592772,42.42765419006348 s-1.22,-5.113 2.137,-5.523 s20.913,-2.557 20.913,-2.557 s9.235,-17.683 10.089,-19.301 c0.8540000000000001,-1.621 4.368,-1.738 5.246,0.14500000000000002 c0.8790000000000001,1.8840000000000001 9.193,19.713 9.193,19.713 s19.994,3.345 21.657,3.6500000000000004 c2.582,0.47900000000000004 2.779,3.662 1.227,5.106 c-1.55,1.444 -15.833,14.745000000000001 -15.833,14.745000000000001 s2.989,19.79 3.294,22.219 C74.73410215759277,83.05365419006348 71.98110215759277,84.04065419006348 69.98510215759278,82.93365419006348 z" fill="#ffffff" id="svg_1" fill-opacity="1" /></g></g></svg>