<?xml version="1.0" encoding="utf-8"?>
<!-- Generator: Adobe Illustrator 19.0.0, SVG Export Plug-In . SVG Version: 6.00 Build 0)  -->
<svg version="1.1" id="Layer_1" xmlns="http://www.w3.org/2000/svg" xmlns:xlink="http://www.w3.org/1999/xlink" x="0px" y="0px"
	 viewBox="0 0 150 150" style="enable-background:new 0 0 150 150;" xml:space="preserve">
<style type="text/css">
	.st0{fill:#D5085A;}
</style>
<g id="XMLID_2_">
	<path id="XMLID_15_" class="st0" d="M106.3,75c0,17.4-14.1,31.5-31.4,31.4c-17.3,0-31.2-14.1-31.3-31.4c0-17.4,14-31.5,31.4-31.4
		C92.4,43.6,106.3,57.6,106.3,75z M97,75.1c0-12.3-9.8-22.2-22-22.1c-12.2,0-21.9,9.8-22,22c0,12.3,9.8,22.2,22,22.1
		C87.2,97.1,97,87.3,97,75.1z"/>
	<path id="XMLID_14_" class="st0" d="M98.1,40.9c-3.4,0-5.8-3.4-4.2-6.5c1.7-3.4,3.6-6.6,5.6-9.8c1.3-2,4-2.6,6.1-1.4
		c2.2,1.2,3.1,3.7,2,5.9c-1.8,3.4-3.6,6.8-5.8,10c-0.7,1.1-2.2,1.6-3.4,2.3C98.2,41.2,98.2,41.1,98.1,40.9z"/>
	<path id="XMLID_13_" class="st0" d="M41.1,51.7c0,3.6-3.5,6-6.5,4.4c-3.4-1.7-6.6-3.6-9.8-5.7c-2.3-1.5-2.6-4.1-1.3-6.3
		c1.3-2,3.9-2.7,6.2-1.5c3.1,1.7,6.1,3.5,9.1,5.3C40.2,48.8,41.1,50,41.1,51.7z"/>
	<path id="XMLID_12_" class="st0" d="M80.3,24.8c0,1.7,0,3.4,0,5.2c-0.1,2.6-2,4.5-4.5,4.6c-2.5,0-4.6-1.8-4.7-4.4
		c-0.1-3.6-0.1-7.2,0-10.8c0.1-2.6,2.1-4.5,4.6-4.5c2.6,0,4.6,2,4.6,4.7C80.3,21.3,80.3,23.1,80.3,24.8z"/>
	<path id="XMLID_11_" class="st0" d="M56.6,114.2c-0.2,0.4-0.4,1.3-0.8,2.1c-1.6,2.9-3.3,5.8-5,8.7c-1.4,2.4-4.1,3.2-6.3,1.9
		c-2.4-1.3-3.2-3.9-1.8-6.4c1.7-3.1,3.5-6.2,5.3-9.2c1.1-1.8,3.3-2.6,5.2-2C55.2,109.8,56.7,111.7,56.6,114.2z"/>
	<path id="XMLID_10_" class="st0" d="M35.5,92.3c2.2,0,3.9,1.1,4.6,3c0.7,1.9,0.4,4-1.3,5.1c-3.4,2.2-6.9,4.2-10.5,6.1
		c-1.9,1-4.4-0.1-5.5-1.9c-1.2-1.9-1.1-4.5,0.8-5.7c3.5-2.3,7.2-4.3,10.9-6.4C34.8,92.3,35.3,92.4,35.5,92.3z"/>
	<path id="XMLID_9_" class="st0" d="M108.9,98.3c0-3.6,3.5-5.9,6.6-4.4c3.3,1.7,6.5,3.6,9.7,5.6c2.3,1.4,2.7,4.1,1.4,6.3
		c-1.2,2.1-4,2.8-6.3,1.6c-3-1.7-6-3.4-8.9-5.2C109.8,101.3,108.9,100,108.9,98.3z"/>
	<path id="XMLID_8_" class="st0" d="M53.1,40.3c-1.8,0-3.1-0.8-4-2.3c-1.8-3-3.6-6-5.2-9.1c-1.4-2.5-0.5-5.1,1.9-6.4
		c2.2-1.2,4.8-0.5,6.2,1.8c1.8,3,3.5,5.9,5.2,9C58.9,36.6,56.8,40.3,53.1,40.3z"/>
	<path id="XMLID_7_" class="st0" d="M114.5,57.7c-2.2,0-3.8-1.1-4.5-2.9c-0.8-1.9-0.5-4,1.2-5.1c3.4-2.2,7-4.3,10.6-6.2
		c1.9-1,4.4,0.1,5.5,2c1.1,2,1,4.5-0.9,5.7c-3.5,2.3-7.1,4.3-10.7,6.3C115.2,57.7,114.7,57.6,114.5,57.7z"/>
	<path id="XMLID_6_" class="st0" d="M69.7,125.3c0-1.7,0-3.4,0-5.2c0.1-2.7,2-4.7,4.6-4.7c2.6,0,4.6,1.9,4.7,4.6
		c0.1,3.5,0.1,7,0,10.5c-0.1,2.7-2.1,4.7-4.7,4.6c-2.6,0-4.5-2-4.6-4.7C69.7,128.7,69.7,127,69.7,125.3z"/>
	<path id="XMLID_5_" class="st0" d="M24.7,79c-1.6,0-3.2,0.1-4.8,0c-2.8-0.1-4.8-2-4.9-4.5c-0.1-2.6,1.8-4.7,4.7-4.8
		c3.4-0.1,6.9-0.1,10.4,0c2.9,0.1,4.8,2.2,4.7,4.8c-0.1,2.5-2,4.4-4.9,4.5C28.1,79.1,26.4,79,24.7,79z"/>
	<path id="XMLID_4_" class="st0" d="M125,80.3c-1.6,0-3.1,0-4.7,0c-3.1-0.1-5.1-2-5.1-4.8c0-2.7,2.1-4.5,5.1-4.5c3.2,0,6.3,0,9.5,0
		c3,0,5.1,1.9,5.1,4.6c0,2.7-2,4.6-5,4.7C128.4,80.4,126.7,80.3,125,80.3z"/>
	<path id="XMLID_3_" class="st0" d="M96.9,109.7c1.8,0,3.1,0.8,4,2.3c1.8,3,3.5,5.9,5.2,9c1.4,2.5,0.7,5.1-1.7,6.5
		c-2.2,1.3-5,0.5-6.4-1.9c-1.7-2.9-3.4-5.8-5.1-8.8C91.1,113.4,93.2,109.7,96.9,109.7z"/>
</g>
</svg>
